<?xml version="1.0" encoding="UTF-8"?>
<svg xmlns="http://www.w3.org/2000/svg" xmlns:xlink="http://www.w3.org/1999/xlink" width="32px" height="32px" viewBox="0 0 32 32" version="1.1">
<g id="surface1">
<path style=" stroke:none;fill-rule:nonzero;fill:rgb(100%,99.607843%,99.607843%);fill-opacity:1;" d="M 18.449219 1.976562 C 18.617188 2.101562 18.671875 2.246094 18.75 2.4375 C 18.75 2.519531 18.75 2.601562 18.75 2.6875 C 18.785156 2.675781 18.820312 2.660156 18.855469 2.648438 C 19.246094 2.503906 19.59375 2.402344 19.992188 2.582031 C 20.125 2.6875 20.125 2.6875 20.25 2.875 C 20.277344 3.171875 20.28125 3.3125 20.144531 3.578125 C 19.9375 3.824219 19.726562 3.984375 19.4375 4.125 C 19.464844 5.292969 19.664062 6.523438 20.511719 7.398438 C 21.011719 7.847656 21.601562 8.03125 22.273438 7.996094 C 24.304688 7.761719 25.75 6.320312 27.125 4.9375 C 27.167969 4.894531 27.210938 4.851562 27.253906 4.808594 C 27.34375 4.625 27.253906 4.503906 27.1875 4.3125 C 27.175781 4.019531 27.210938 3.808594 27.371094 3.558594 C 27.644531 3.386719 27.875 3.382812 28.1875 3.4375 C 28.429688 3.5625 28.539062 3.648438 28.6875 3.875 C 28.746094 3.863281 28.804688 3.855469 28.867188 3.84375 C 29.230469 3.792969 29.597656 3.746094 29.941406 3.894531 C 30.0625 4 30.0625 4 30.125 4.1875 C 30.148438 4.5625 30.105469 4.789062 29.9375 5.125 C 29.996094 5.171875 30.054688 5.214844 30.117188 5.261719 C 30.335938 5.445312 30.421875 5.59375 30.449219 5.882812 C 30.464844 6.179688 30.449219 6.390625 30.25 6.625 C 29.894531 6.878906 29.546875 6.867188 29.125 6.8125 C 28.925781 6.730469 28.925781 6.730469 28.734375 6.632812 C 28.488281 6.511719 28.488281 6.511719 28.226562 6.542969 C 28.070312 6.640625 27.945312 6.75 27.8125 6.875 C 27.730469 6.949219 27.730469 6.949219 27.648438 7.023438 C 27.539062 7.117188 27.433594 7.214844 27.328125 7.316406 C 27.1875 7.4375 27.1875 7.4375 27.050781 7.5 C 26.902344 7.582031 26.882812 7.660156 26.8125 7.8125 C 26.730469 7.90625 26.644531 7.996094 26.558594 8.085938 C 25.734375 8.988281 25.109375 10.171875 25.128906 11.417969 C 25.210938 12.191406 25.546875 12.855469 26.125 13.375 C 26.738281 13.839844 27.375 14.074219 28.128906 14.195312 C 28.246094 14.214844 28.363281 14.234375 28.480469 14.253906 C 28.535156 14.265625 28.589844 14.273438 28.648438 14.28125 C 28.890625 14.328125 29.132812 14.382812 29.375 14.4375 C 29.386719 14.394531 29.394531 14.351562 29.40625 14.304688 C 29.566406 13.996094 29.863281 13.796875 30.1875 13.6875 C 30.5 13.664062 30.691406 13.679688 30.9375 13.875 C 31.113281 14.40625 30.960938 14.878906 30.75 15.375 C 30.796875 15.390625 30.847656 15.410156 30.894531 15.429688 C 31.105469 15.519531 31.222656 15.640625 31.375 15.8125 C 31.464844 16.082031 31.480469 16.339844 31.4375 16.625 C 31.28125 16.835938 31.183594 16.917969 30.9375 17 C 30.683594 17.015625 30.480469 16.996094 30.242188 16.917969 C 30.121094 16.898438 30.121094 16.898438 30 16.875 C 29.824219 17.011719 29.824219 17.011719 29.6875 17.1875 C 29.398438 17.375 29.082031 17.339844 28.75 17.3125 C 28.5625 17.257812 28.5625 17.257812 28.4375 17.125 C 28.355469 16.921875 28.300781 16.714844 28.25 16.5 C 27.164062 16.46875 26.34375 16.59375 25.484375 17.328125 C 24.402344 18.351562 24.085938 19.835938 24.042969 21.277344 C 24.027344 22.273438 24.160156 23.257812 24.28125 24.246094 C 24.320312 24.574219 24.355469 24.90625 24.390625 25.234375 C 24.398438 25.304688 24.398438 25.304688 24.40625 25.378906 C 24.417969 25.480469 24.425781 25.585938 24.4375 25.6875 C 24.523438 25.710938 24.523438 25.710938 24.613281 25.738281 C 24.90625 25.847656 25.046875 26.03125 25.1875 26.3125 C 25.222656 26.664062 25.214844 26.957031 25 27.25 C 24.847656 27.40625 24.707031 27.496094 24.5 27.5625 C 24.332031 27.566406 24.171875 27.5625 24.003906 27.554688 C 23.671875 27.539062 23.457031 27.546875 23.195312 27.769531 C 23.152344 27.808594 23.109375 27.847656 23.066406 27.890625 C 22.816406 28.105469 22.5 28.183594 22.171875 28.191406 C 21.910156 28.167969 21.707031 28.101562 21.5 27.9375 C 21.300781 27.621094 21.332031 27.214844 21.402344 26.859375 C 21.433594 26.757812 21.464844 26.660156 21.5 26.5625 C 21.460938 26.53125 21.421875 26.496094 21.382812 26.464844 C 21.332031 26.421875 21.277344 26.375 21.226562 26.332031 C 21.152344 26.269531 21.152344 26.269531 21.074219 26.203125 C 20.894531 26.015625 20.816406 25.863281 20.804688 25.601562 C 20.847656 25.21875 20.847656 25.21875 20.992188 25.0625 C 21.253906 24.941406 21.460938 24.929688 21.746094 24.929688 C 21.824219 24.929688 21.898438 24.929688 21.976562 24.929688 C 22.148438 24.9375 22.277344 24.957031 22.4375 25 C 22.308594 23.148438 21.988281 21.015625 20.546875 19.683594 C 20.167969 19.371094 19.820312 19.164062 19.320312 19.1875 C 18.550781 19.300781 17.957031 19.816406 17.507812 20.421875 C 16.421875 21.929688 16.421875 21.929688 15.910156 23.65625 C 15.886719 23.984375 15.828125 24.175781 15.625 24.4375 C 15.367188 24.605469 15.046875 24.597656 14.75 24.5625 C 14.566406 24.472656 14.566406 24.472656 14.4375 24.375 C 14.394531 24.355469 14.355469 24.332031 14.3125 24.3125 C 14.21875 24.359375 14.125 24.410156 14.035156 24.464844 C 13.691406 24.644531 13.382812 24.703125 13 24.625 C 12.785156 24.46875 12.707031 24.375 12.625 24.125 C 12.582031 23.625 12.71875 23.167969 13 22.75 C 12.988281 22.632812 12.988281 22.632812 12.945312 22.503906 C 12.835938 22.070312 12.804688 21.628906 12.960938 21.207031 C 13.0625 21.0625 13.0625 21.0625 13.1875 21 C 13.636719 20.953125 13.941406 20.984375 14.3125 21.25 C 15.382812 20.171875 16.425781 18.550781 16.453125 16.984375 C 16.445312 16.339844 16.1875 15.816406 15.738281 15.359375 C 15.503906 15.148438 15.277344 14.957031 15 14.8125 C 14.871094 14.851562 14.871094 14.851562 14.75 14.9375 C 14.332031 15.105469 13.964844 15.113281 13.550781 14.9375 C 13.355469 14.828125 13.28125 14.703125 13.1875 14.5 C 13.152344 14.3125 13.132812 14.128906 13.125 13.9375 C 13.085938 13.933594 13.046875 13.929688 13.007812 13.925781 C 12.667969 13.894531 12.335938 13.855469 12 13.8125 C 11.964844 13.871094 11.929688 13.925781 11.894531 13.984375 C 11.667969 14.300781 11.445312 14.480469 11.0625 14.5625 C 10.59375 14.605469 10.261719 14.597656 9.875 14.3125 C 9.832031 14.269531 9.792969 14.230469 9.75 14.1875 C 9.457031 14.292969 9.222656 14.402344 9 14.625 C 8.941406 14.847656 8.957031 15.070312 8.984375 15.296875 C 9.011719 15.558594 9.015625 15.660156 8.886719 15.898438 C 8.648438 16.183594 8.429688 16.359375 8.0625 16.4375 C 7.8125 16.445312 7.5625 16.441406 7.3125 16.4375 C 7.085938 16.871094 6.859375 17.304688 6.625 17.75 C 6.851562 17.773438 7.078125 17.800781 7.3125 17.824219 C 8.195312 17.929688 9.011719 18.097656 9.75 18.625 C 9.847656 18.695312 9.847656 18.695312 9.949219 18.765625 C 10.824219 19.621094 11.113281 20.792969 11.132812 21.980469 C 11.128906 22.242188 11.101562 22.492188 11.0625 22.75 C 11.101562 22.765625 11.136719 22.78125 11.175781 22.796875 C 11.34375 22.894531 11.40625 22.953125 11.5 23.125 C 11.570312 23.40625 11.585938 23.621094 11.488281 23.898438 C 11.328125 24.128906 11.199219 24.226562 10.9375 24.3125 C 10.410156 24.367188 10 24.308594 9.5625 24 C 9.328125 23.777344 9.191406 23.589844 9.171875 23.261719 C 9.175781 23.023438 9.214844 22.875 9.375 22.6875 C 9.507812 22.648438 9.507812 22.648438 9.625 22.625 C 9.449219 22.023438 9.253906 21.507812 8.875 21 C 8.84375 20.957031 8.8125 20.910156 8.777344 20.867188 C 8.1875 20.121094 7.285156 19.671875 6.355469 19.558594 C 6.132812 19.535156 5.910156 19.515625 5.6875 19.5 C 5.851562 20.335938 6.039062 21.117188 6.4375 21.875 C 6.457031 21.914062 6.480469 21.953125 6.5 21.996094 C 6.867188 22.679688 7.335938 23.289062 7.898438 23.828125 C 8 23.9375 8 23.9375 8 24.0625 C 8.035156 24.078125 8.070312 24.097656 8.105469 24.113281 C 8.203125 24.164062 8.300781 24.214844 8.398438 24.269531 C 8.453125 24.296875 8.503906 24.324219 8.558594 24.351562 C 8.609375 24.378906 8.664062 24.40625 8.714844 24.4375 C 8.871094 24.511719 8.871094 24.511719 9.039062 24.492188 C 9.1875 24.5 9.1875 24.5 9.300781 24.605469 C 9.453125 24.902344 9.429688 25.265625 9.328125 25.582031 C 9.203125 25.855469 9.039062 26.050781 8.8125 26.25 C 8.765625 26.292969 8.722656 26.332031 8.675781 26.375 C 8.140625 26.753906 7.539062 26.996094 6.875 26.9375 C 6.613281 26.875 6.433594 26.824219 6.265625 26.609375 C 6.175781 26.410156 6.183594 26.3125 6.210938 26.101562 C 6.222656 25.605469 5.972656 25.28125 5.710938 24.882812 C 5.007812 23.789062 4.464844 22.585938 4.1875 21.3125 C 4.175781 21.25 4.160156 21.191406 4.148438 21.125 C 4.019531 20.429688 4.019531 19.707031 4 19 C 3.9375 18.980469 3.875 18.957031 3.8125 18.9375 C 3.378906 19.292969 3.265625 19.847656 3.1875 20.375 C 3.101562 21.449219 3.261719 22.429688 3.585938 23.449219 C 3.601562 23.503906 3.621094 23.5625 3.640625 23.621094 C 3.75 23.949219 3.863281 24.136719 4.125 24.375 C 4.191406 24.523438 4.214844 24.652344 4.25 24.8125 C 4.28125 24.78125 4.3125 24.753906 4.34375 24.722656 C 4.554688 24.589844 4.753906 24.554688 5 24.5625 C 5.347656 24.695312 5.347656 24.695312 5.4375 24.875 C 5.476562 25.1875 5.488281 25.421875 5.3125 25.691406 C 5.023438 25.878906 4.785156 25.894531 4.449219 25.851562 C 4.230469 25.6875 4.191406 25.445312 4.125 25.1875 C 4.082031 25.234375 4.042969 25.28125 4 25.328125 C 3.570312 25.75 3.085938 25.816406 2.5 25.8125 C 2.015625 25.769531 1.5625 25.570312 1.222656 25.21875 C 1.007812 24.875 0.953125 24.589844 1 24.1875 C 1.074219 23.972656 1.074219 23.972656 1.1875 23.8125 C 1.351562 23.738281 1.351562 23.738281 1.5 23.6875 C 1.496094 23.625 1.492188 23.558594 1.488281 23.492188 C 1.203125 18.660156 1.203125 18.660156 2.25 17.375 C 2.441406 17.164062 2.589844 17.066406 2.878906 17.050781 C 2.949219 17.050781 3.019531 17.046875 3.089844 17.042969 C 3.304688 17.027344 3.304688 17.027344 3.5 16.9375 C 3.695312 16.671875 3.808594 16.386719 3.933594 16.082031 C 4.046875 15.832031 4.191406 15.601562 4.335938 15.367188 C 4.363281 15.320312 4.394531 15.273438 4.421875 15.222656 C 4.5625 15 4.707031 14.785156 4.867188 14.574219 C 5.195312 14.15625 5.367188 13.859375 5.367188 13.308594 C 5.378906 12.992188 5.5 12.757812 5.714844 12.53125 C 5.949219 12.320312 6.171875 12.179688 6.492188 12.195312 C 6.59375 12.207031 6.59375 12.207031 6.695312 12.21875 C 7.292969 12.230469 7.734375 11.929688 8.238281 11.636719 C 8.375 11.5625 8.503906 11.515625 8.652344 11.46875 C 8.882812 11.398438 8.882812 11.398438 8.964844 11.214844 C 8.980469 11.15625 8.992188 11.097656 9.007812 11.035156 C 9.109375 10.703125 9.109375 10.703125 9.304688 10.527344 C 9.886719 10.257812 10.566406 10.15625 11.195312 10.328125 C 11.484375 10.441406 11.71875 10.605469 11.875 10.875 C 11.875 10.9375 11.875 11 11.875 11.0625 C 11.910156 11.0625 11.941406 11.0625 11.976562 11.066406 C 12.527344 11.097656 13.128906 11.253906 13.625 11.5 C 13.644531 11.417969 13.644531 11.417969 13.667969 11.332031 C 13.773438 11.0625 13.929688 10.894531 14.175781 10.742188 C 14.558594 10.589844 15.027344 10.652344 15.40625 10.785156 C 15.605469 10.875 15.730469 10.957031 15.851562 11.140625 C 15.953125 11.414062 15.957031 11.589844 15.9375 11.875 C 16.746094 11.375 17.324219 10.640625 17.558594 9.710938 C 17.664062 9.117188 17.734375 8.535156 17.769531 7.933594 C 17.773438 7.890625 17.773438 7.84375 17.777344 7.800781 C 17.835938 6.8125 17.890625 5.679688 17.5 4.75 C 17.347656 4.605469 17.347656 4.605469 17.15625 4.542969 C 16.824219 4.386719 16.824219 4.386719 16.671875 4.195312 C 16.605469 3.921875 16.613281 3.773438 16.6875 3.5 C 16.949219 3.300781 17.179688 3.292969 17.5 3.3125 C 17.496094 3.257812 17.496094 3.207031 17.492188 3.148438 C 17.476562 2.402344 17.476562 2.402344 17.6875 2.0625 C 17.910156 1.886719 18.183594 1.898438 18.449219 1.976562 Z M 18.25 3.5 C 18.171875 3.679688 18.125 3.800781 18.125 4 C 18.042969 4.019531 17.960938 4.042969 17.875 4.0625 C 17.914062 4.085938 17.953125 4.109375 17.992188 4.132812 C 18.164062 4.28125 18.195312 4.402344 18.257812 4.617188 C 18.277344 4.679688 18.296875 4.746094 18.316406 4.8125 C 18.492188 5.519531 18.523438 6.21875 18.519531 6.941406 C 18.519531 7.105469 18.519531 7.265625 18.523438 7.425781 C 18.527344 8.367188 18.425781 9.277344 18.113281 10.167969 C 18.09375 10.222656 18.074219 10.277344 18.054688 10.332031 C 17.761719 11.15625 17.386719 12.023438 16.5625 12.4375 C 16.441406 12.449219 16.316406 12.457031 16.195312 12.464844 C 15.992188 12.496094 15.992188 12.496094 15.8125 12.625 C 15.585938 13 15.375 13.558594 15.375 14 C 15.5 14.09375 15.625 14.175781 15.753906 14.261719 C 16.550781 14.796875 17.035156 15.445312 17.230469 16.398438 C 17.378906 18.140625 16.613281 19.714844 15.5625 21.0625 C 15.53125 21.101562 15.5 21.144531 15.46875 21.183594 C 15.375 21.308594 15.277344 21.429688 15.179688 21.550781 C 15.136719 21.609375 15.136719 21.609375 15.089844 21.664062 C 14.925781 21.863281 14.8125 21.957031 14.554688 21.992188 C 14.132812 22.003906 13.878906 21.984375 13.5625 21.6875 C 13.59375 22.027344 13.59375 22.027344 13.691406 22.347656 C 13.777344 22.566406 13.78125 22.703125 13.75 22.9375 C 13.660156 23.121094 13.5625 23.292969 13.457031 23.464844 C 13.355469 23.632812 13.355469 23.632812 13.375 23.875 C 13.582031 23.804688 13.75 23.710938 13.929688 23.585938 C 14.171875 23.433594 14.335938 23.382812 14.625 23.4375 C 14.796875 23.59375 14.796875 23.59375 14.9375 23.75 C 15 23.75 15.0625 23.75 15.125 23.75 C 15.113281 23.707031 15.105469 23.667969 15.09375 23.625 C 15.054688 23.386719 15.046875 23.179688 15.0625 22.9375 C 15.125 22.875 15.1875 22.8125 15.25 22.75 C 15.324219 22.609375 15.398438 22.472656 15.464844 22.328125 C 15.507812 22.242188 15.546875 22.15625 15.589844 22.070312 C 15.613281 22.023438 15.632812 21.980469 15.65625 21.933594 C 17.027344 19.109375 17.027344 19.109375 18.4375 18.5625 C 19.203125 18.320312 19.859375 18.296875 20.605469 18.640625 C 21.585938 19.191406 22.117188 20.167969 22.5 21.1875 C 22.527344 21.257812 22.554688 21.332031 22.582031 21.40625 C 22.894531 22.265625 23.09375 23.210938 23.125 24.125 C 23.128906 24.1875 23.128906 24.246094 23.132812 24.3125 C 23.144531 24.863281 23.078125 25.394531 23 25.9375 C 22.515625 25.886719 22.515625 25.886719 22.378906 25.78125 C 22.171875 25.632812 21.9375 25.640625 21.6875 25.625 C 21.734375 25.671875 21.78125 25.71875 21.832031 25.769531 C 21.886719 25.824219 21.941406 25.878906 22 25.9375 C 22.035156 25.972656 22.070312 26.003906 22.109375 26.039062 C 22.277344 26.226562 22.261719 26.449219 22.261719 26.6875 C 22.246094 26.847656 22.1875 26.976562 22.125 27.125 C 22.113281 27.292969 22.113281 27.292969 22.125 27.4375 C 22.425781 27.359375 22.585938 27.25 22.800781 27.027344 C 23.050781 26.792969 23.21875 26.6875 23.5625 26.667969 C 23.707031 26.691406 23.808594 26.746094 23.9375 26.8125 C 24.105469 26.824219 24.105469 26.824219 24.25 26.8125 C 24.292969 26.730469 24.332031 26.648438 24.375 26.5625 C 24.328125 26.527344 24.285156 26.492188 24.238281 26.457031 C 23.902344 26.183594 23.71875 26.011719 23.644531 25.574219 C 23.636719 25.535156 23.628906 25.492188 23.625 25.449219 C 23.601562 25.320312 23.582031 25.191406 23.5625 25.0625 C 23.554688 25.019531 23.550781 24.980469 23.542969 24.9375 C 23.507812 24.6875 23.476562 24.4375 23.445312 24.1875 C 23.429688 24.0625 23.414062 23.9375 23.398438 23.808594 C 23.132812 21.683594 23.023438 19.175781 24.296875 17.324219 C 24.992188 16.429688 25.945312 15.902344 27.0625 15.75 C 28.382812 15.632812 28.382812 15.632812 28.8125 15.9375 C 28.933594 16.136719 29.003906 16.335938 29.0625 16.5625 C 29.261719 16.476562 29.320312 16.429688 29.457031 16.246094 C 29.625 16.0625 29.625 16.0625 29.84375 16.003906 C 30.035156 16 30.191406 16.011719 30.375 16.0625 C 30.289062 15.964844 30.289062 15.964844 30.1875 15.875 C 30.144531 15.875 30.105469 15.875 30.0625 15.875 C 29.980469 15.410156 30.023438 15.066406 30.1875 14.625 C 30.148438 14.671875 30.109375 14.71875 30.066406 14.769531 C 29.789062 15.042969 29.4375 15.128906 29.054688 15.136719 C 28.714844 15.132812 28.386719 15.078125 28.054688 15.019531 C 27.992188 15.007812 27.929688 14.996094 27.863281 14.984375 C 26.742188 14.777344 25.71875 14.390625 24.996094 13.460938 C 24.742188 13.078125 24.574219 12.6875 24.4375 12.25 C 24.371094 12.476562 24.390625 12.65625 24.421875 12.890625 C 24.542969 14.132812 24.347656 15.4375 23.5625 16.4375 C 22.984375 17.078125 22.152344 17.460938 21.292969 17.507812 C 20.316406 17.53125 19.5 17.175781 18.75 16.5625 C 18.710938 16.53125 18.671875 16.5 18.632812 16.464844 C 17.914062 15.8125 17.320312 14.742188 17.234375 13.773438 C 17.253906 13.480469 17.34375 13.21875 17.4375 12.941406 C 17.457031 12.882812 17.476562 12.824219 17.496094 12.765625 C 17.757812 12.015625 18.109375 11.355469 18.625 10.75 C 18.664062 10.699219 18.703125 10.648438 18.742188 10.59375 C 19.210938 10.035156 20.023438 9.589844 20.75 9.5 C 21.621094 9.433594 22.4375 9.558594 23.125 10.125 C 23.289062 10.269531 23.289062 10.269531 23.4375 10.4375 C 23.488281 10.496094 23.488281 10.496094 23.542969 10.554688 C 23.8125 10.875 23.972656 11.195312 24.121094 11.585938 C 24.183594 11.761719 24.183594 11.761719 24.3125 11.9375 C 24.3125 11.886719 24.3125 11.886719 24.3125 11.832031 C 24.351562 10.023438 24.898438 8.691406 26.0625 7.3125 C 25.808594 7.3125 25.683594 7.445312 25.492188 7.59375 C 24.265625 8.503906 22.886719 8.851562 21.375 8.75 C 21.101562 8.699219 20.871094 8.625 20.625 8.5 C 20.542969 8.460938 20.542969 8.460938 20.457031 8.417969 C 19.640625 7.972656 19.257812 7.191406 18.980469 6.335938 C 18.800781 5.703125 18.734375 5.074219 18.703125 4.421875 C 18.683594 4.152344 18.65625 3.890625 18.625 3.625 C 18.5 3.582031 18.378906 3.542969 18.25 3.5 Z M 28 4.3125 C 28.019531 4.375 28.042969 4.4375 28.0625 4.5 C 28.0625 4.4375 28.0625 4.375 28.0625 4.3125 C 28.042969 4.3125 28.019531 4.3125 28 4.3125 Z M 28.125 4.5 C 28.121094 4.546875 28.121094 4.59375 28.117188 4.640625 C 28.058594 5.214844 27.847656 5.488281 27.4375 5.875 C 27.34375 5.972656 27.246094 6.066406 27.152344 6.164062 C 27.082031 6.234375 27.007812 6.304688 26.9375 6.375 C 27.183594 6.375 27.253906 6.289062 27.445312 6.136719 C 27.820312 5.859375 28.128906 5.6875 28.597656 5.6875 C 28.832031 5.753906 28.996094 5.851562 29.195312 5.992188 C 29.320312 6.066406 29.414062 6.109375 29.5625 6.125 C 29.605469 6.082031 29.644531 6.042969 29.6875 6 C 29.484375 5.824219 29.304688 5.679688 29.0625 5.5625 C 28.964844 5.363281 28.980469 5.152344 29 4.9375 C 29.0625 4.78125 29.0625 4.78125 29.125 4.6875 C 29.089844 4.699219 29.054688 4.707031 29.019531 4.71875 C 28.871094 4.75 28.738281 4.765625 28.589844 4.769531 C 28.542969 4.773438 28.496094 4.773438 28.445312 4.777344 C 28.3125 4.75 28.3125 4.75 28.203125 4.625 C 28.175781 4.582031 28.152344 4.542969 28.125 4.5 Z M 18.9375 11.5 C 18.425781 12.164062 17.992188 12.964844 17.9375 13.8125 C 18.132812 14.828125 18.929688 15.753906 19.742188 16.351562 C 20.316406 16.726562 20.90625 16.902344 21.59375 16.785156 C 22.28125 16.609375 22.910156 16.113281 23.296875 15.523438 C 23.820312 14.5625 23.886719 13.394531 23.632812 12.339844 C 23.363281 11.503906 22.925781 10.8125 22.144531 10.382812 C 20.914062 9.769531 19.734375 10.570312 18.9375 11.5 Z M 9.703125 11.085938 C 9.523438 11.320312 9.554688 11.589844 9.5625 11.875 C 9.675781 12.5 9.890625 13.359375 10.378906 13.804688 C 10.558594 13.910156 10.667969 13.910156 10.875 13.875 C 11.222656 13.617188 11.324219 13.28125 11.417969 12.875 C 11.480469 12.28125 11.417969 11.636719 11.035156 11.144531 C 10.800781 10.933594 10.65625 10.882812 10.34375 10.859375 C 10.082031 10.878906 9.910156 10.925781 9.703125 11.085938 Z M 14.25 11.625 C 13.800781 12.285156 13.785156 13.476562 13.875 14.25 C 14.046875 14.390625 14.046875 14.390625 14.214844 14.371094 C 14.476562 14.273438 14.589844 14.066406 14.71875 13.828125 C 14.898438 13.441406 15.050781 13.058594 15.179688 12.65625 C 15.191406 12.613281 15.207031 12.574219 15.21875 12.53125 C 15.289062 12.304688 15.339844 12.109375 15.3125 11.875 C 15.183594 11.648438 15.09375 11.519531 14.875 11.375 C 14.582031 11.328125 14.449219 11.414062 14.25 11.625 Z M 12.0625 11.875 C 12.082031 12.246094 12.105469 12.617188 12.125 13 C 12.253906 13.019531 12.378906 13.042969 12.511719 13.0625 C 12.582031 13.074219 12.65625 13.085938 12.730469 13.097656 C 12.90625 13.121094 13.070312 13.128906 13.25 13.125 C 13.273438 13.039062 13.292969 12.949219 13.316406 12.863281 C 13.335938 12.789062 13.335938 12.789062 13.355469 12.714844 C 13.378906 12.542969 13.355469 12.417969 13.3125 12.25 C 13.164062 12.199219 13.011719 12.148438 12.863281 12.097656 C 12.820312 12.082031 12.777344 12.070312 12.734375 12.054688 C 12.511719 11.976562 12.296875 11.921875 12.0625 11.875 Z M 24.3125 11.9375 C 24.375 12.1875 24.375 12.1875 24.375 12.1875 Z M 8.699219 12.359375 C 8.65625 12.382812 8.613281 12.40625 8.566406 12.425781 C 8.519531 12.453125 8.472656 12.476562 8.425781 12.5 C 8.378906 12.523438 8.332031 12.546875 8.285156 12.570312 C 8.167969 12.632812 8.054688 12.691406 7.9375 12.75 C 7.9375 13.054688 8.054688 13.210938 8.21875 13.453125 C 8.3125 13.59375 8.40625 13.730469 8.5 13.875 C 8.828125 13.710938 9.160156 13.546875 9.5 13.375 C 9.472656 13.292969 9.445312 13.210938 9.417969 13.128906 C 9.320312 12.835938 9.222656 12.542969 9.125 12.25 C 8.933594 12.25 8.867188 12.273438 8.699219 12.359375 Z M 6.125 13.0625 C 5.949219 13.363281 5.917969 13.542969 6 13.875 C 6.332031 14.542969 6.960938 15.464844 7.6875 15.734375 C 7.832031 15.765625 7.832031 15.765625 8.007812 15.640625 C 8.195312 15.507812 8.195312 15.507812 8.3125 15.3125 C 8.328125 14.503906 7.703125 13.703125 7.1875 13.125 C 6.96875 12.925781 6.96875 12.925781 6.691406 12.847656 C 6.460938 12.878906 6.320312 12.929688 6.125 13.0625 Z M 5.75 14.8125 C 5.371094 15.355469 5.019531 15.914062 4.683594 16.484375 C 4.621094 16.59375 4.558594 16.699219 4.496094 16.804688 C 4.457031 16.875 4.417969 16.941406 4.375 17.007812 C 4.324219 17.097656 4.324219 17.097656 4.269531 17.191406 C 4.175781 17.398438 4.148438 17.585938 4.125 17.8125 C 3.605469 17.769531 3.605469 17.769531 3.390625 17.671875 C 3.246094 17.609375 3.246094 17.609375 3.097656 17.683594 C 2.429688 18.222656 2.21875 18.984375 2.125 19.8125 C 2.109375 20.117188 2.105469 20.417969 2.109375 20.722656 C 2.109375 20.765625 2.109375 20.804688 2.109375 20.847656 C 2.113281 21.523438 2.144531 22.195312 2.207031 22.871094 C 2.246094 23.308594 2.257812 23.746094 2.25 24.1875 C 2.207031 24.1875 2.167969 24.1875 2.125 24.1875 C 2.125 24.230469 2.125 24.269531 2.125 24.3125 C 1.980469 24.332031 1.835938 24.355469 1.6875 24.375 C 1.722656 24.59375 1.789062 24.683594 1.960938 24.824219 C 2.019531 24.871094 2.019531 24.871094 2.074219 24.921875 C 2.363281 25.125 2.726562 25.101562 3.0625 25.0625 C 3.257812 24.953125 3.257812 24.953125 3.375 24.8125 C 3.351562 24.667969 3.335938 24.582031 3.222656 24.480469 C 3.097656 24.347656 3.058594 24.226562 3 24.050781 C 2.980469 23.984375 2.957031 23.921875 2.9375 23.855469 C 2.914062 23.789062 2.894531 23.722656 2.871094 23.652344 C 2.847656 23.585938 2.828125 23.519531 2.804688 23.453125 C 2.359375 22.101562 2.238281 20.558594 2.742188 19.207031 C 2.757812 19.164062 2.773438 19.125 2.789062 19.082031 C 2.925781 18.742188 3.070312 18.503906 3.394531 18.324219 C 3.777344 18.199219 4.066406 18.230469 4.4375 18.375 C 4.46875 18.53125 4.46875 18.53125 4.5 18.6875 C 4.5625 18.707031 4.625 18.730469 4.6875 18.75 C 4.6875 18.800781 4.683594 18.847656 4.683594 18.898438 C 4.644531 21.285156 5.542969 23.105469 6.773438 25.097656 C 6.964844 25.410156 7.019531 25.628906 7 26 C 6.957031 26.0625 6.917969 26.125 6.875 26.1875 C 7.257812 26.308594 7.535156 26.175781 7.875 26 C 8.238281 25.785156 8.441406 25.566406 8.625 25.1875 C 8.527344 25.160156 8.527344 25.160156 8.425781 25.132812 C 7.128906 24.644531 6.25 23.273438 5.691406 22.074219 C 5.292969 21.183594 4.800781 19.84375 5.125 18.875 C 5.46875 18.804688 5.46875 18.804688 5.617188 18.84375 C 5.773438 18.878906 5.902344 18.875 6.0625 18.871094 C 7.042969 18.867188 7.964844 19.164062 8.75 19.75 C 8.804688 19.789062 8.859375 19.832031 8.914062 19.871094 C 9.554688 20.390625 9.851562 21.144531 10.042969 21.925781 C 10.128906 22.789062 10.128906 22.789062 9.957031 23.121094 C 9.929688 23.183594 9.902344 23.246094 9.875 23.3125 C 9.953125 23.503906 10.003906 23.59375 10.1875 23.6875 C 10.554688 23.714844 10.554688 23.714844 10.875 23.5625 C 10.917969 23.410156 10.917969 23.410156 10.875 23.25 C 10.824219 23.214844 10.773438 23.179688 10.71875 23.144531 C 10.5625 23 10.5625 23 10.523438 22.777344 C 10.523438 22.6875 10.523438 22.601562 10.523438 22.511719 C 10.492188 21.34375 10.214844 20.234375 9.382812 19.378906 C 8.554688 18.601562 7.460938 18.507812 6.375 18.464844 C 6.308594 18.460938 6.242188 18.460938 6.175781 18.457031 C 6.011719 18.449219 5.851562 18.445312 5.6875 18.4375 C 5.679688 17.5 6.164062 16.667969 6.625 15.875 C 6.527344 15.746094 6.425781 15.613281 6.328125 15.484375 C 6.300781 15.449219 6.273438 15.410156 6.242188 15.375 C 6.089844 15.171875 5.933594 14.988281 5.75 14.8125 Z M 5.75 14.8125 "/>
<path style=" stroke:none;fill-rule:nonzero;fill:rgb(99.215686%,98.431373%,97.647059%);fill-opacity:1;" d="M 14.550781 3.203125 C 15.015625 3.578125 15.300781 3.976562 15.4375 4.5625 C 15.445312 4.671875 15.453125 4.777344 15.457031 4.886719 C 15.476562 5.203125 15.605469 5.328125 15.820312 5.550781 C 16.347656 6.175781 16.371094 7.039062 16.3125 7.8125 C 16.171875 8.625 15.730469 9.273438 15.0625 9.75 C 14.367188 10.144531 13.667969 10.289062 12.882812 10.117188 C 12.027344 9.882812 11.367188 9.363281 10.90625 8.605469 C 10.785156 8.386719 10.675781 8.160156 10.5625 7.9375 C 10.082031 8.199219 9.625 8.472656 9.179688 8.789062 C 8.542969 9.234375 7.925781 9.632812 7.125 9.5625 C 6.832031 9.457031 6.664062 9.328125 6.5 9.0625 C 6.199219 8.269531 6.488281 7.484375 6.8125 6.75 C 7.007812 6.332031 7.253906 5.957031 7.515625 5.582031 C 7.542969 5.542969 7.570312 5.503906 7.597656 5.464844 C 7.667969 5.367188 7.738281 5.277344 7.8125 5.1875 C 7.855469 5.1875 7.894531 5.1875 7.9375 5.1875 C 7.953125 5.152344 7.96875 5.113281 7.988281 5.078125 C 8.117188 4.832031 8.3125 4.640625 8.5 4.4375 C 8.535156 4.398438 8.570312 4.355469 8.609375 4.3125 C 9.972656 2.847656 12.773438 2.007812 14.550781 3.203125 Z M 9 6.125 C 8.460938 6.699219 8.460938 6.699219 8.1875 7.375 C 8.613281 7.246094 9 7.074219 9.398438 6.878906 C 9.84375 6.664062 10.277344 6.460938 10.75 6.3125 C 10.746094 6.25 10.738281 6.1875 10.734375 6.125 C 10.734375 5.707031 10.984375 5.367188 11.25 5.0625 C 11.703125 4.699219 12.191406 4.519531 12.75 4.375 C 12.75 4.355469 12.75 4.332031 12.75 4.3125 C 11.234375 4.238281 9.988281 5.003906 9 6.125 Z M 12.335938 5.578125 C 12.289062 5.59375 12.238281 5.609375 12.1875 5.625 C 12.042969 5.683594 12.042969 5.683594 11.9375 5.875 C 12.058594 5.847656 12.179688 5.816406 12.300781 5.789062 C 12.402344 5.765625 12.402344 5.765625 12.503906 5.742188 C 12.695312 5.695312 12.695312 5.695312 12.875 5.5625 C 12.667969 5.492188 12.542969 5.507812 12.335938 5.578125 Z M 14.273438 6.746094 C 13.59375 7.121094 12.816406 7.273438 12.0625 7.4375 C 12.0625 7.707031 12.199219 7.871094 12.375 8.0625 C 12.792969 8.382812 13.164062 8.492188 13.6875 8.4375 C 14.054688 8.335938 14.28125 8.128906 14.492188 7.816406 C 14.625 7.570312 14.65625 7.371094 14.585938 7.097656 C 14.539062 6.957031 14.492188 6.824219 14.4375 6.6875 C 14.363281 6.683594 14.363281 6.683594 14.273438 6.746094 Z M 14.273438 6.746094 "/>
<path style=" stroke:none;fill-rule:nonzero;fill:rgb(99.215686%,98.039216%,97.647059%);fill-opacity:1;" d="M 28.101562 17.625 C 28.589844 17.773438 29.058594 17.765625 29.566406 17.746094 C 29.90625 17.734375 30.144531 17.738281 30.4375 17.9375 C 30.679688 18.191406 30.738281 18.355469 30.765625 18.695312 C 30.734375 19.207031 30.570312 19.59375 30.269531 20.003906 C 30.175781 20.128906 30.175781 20.128906 30.125 20.3125 C 30.15625 20.449219 30.15625 20.449219 30.210938 20.597656 C 30.429688 21.277344 30.445312 22.105469 30.113281 22.75 C 29.84375 23.230469 29.453125 23.617188 28.921875 23.796875 C 28.421875 23.921875 27.945312 23.878906 27.4375 23.8125 C 27.421875 23.875 27.40625 23.9375 27.390625 24 C 27.109375 25.128906 27.109375 25.128906 26.746094 25.386719 C 26.476562 25.53125 26.238281 25.527344 25.941406 25.515625 C 25.894531 25.515625 25.84375 25.511719 25.792969 25.511719 C 25.675781 25.507812 25.554688 25.503906 25.4375 25.5 C 24.574219 24 24.492188 21.78125 24.902344 20.125 C 25.152344 19.222656 25.527344 18.367188 26.3125 17.8125 C 26.914062 17.480469 27.441406 17.417969 28.101562 17.625 Z M 27.328125 19.953125 C 27.238281 20.078125 27.203125 20.160156 27.1875 20.3125 C 27.25 20.40625 27.25 20.40625 27.3125 20.5 C 27.496094 20.320312 27.664062 20.148438 27.8125 19.9375 C 27.746094 19.859375 27.746094 19.859375 27.601562 19.859375 C 27.4375 19.859375 27.4375 19.859375 27.328125 19.953125 Z M 26.1875 21.3125 C 26.113281 21.703125 26.113281 22.082031 26.113281 22.476562 C 26.113281 22.546875 26.113281 22.617188 26.109375 22.691406 C 26.109375 22.757812 26.109375 22.828125 26.109375 22.898438 C 26.109375 22.957031 26.109375 23.019531 26.109375 23.085938 C 26.125 23.253906 26.164062 23.355469 26.25 23.5 C 26.300781 23.265625 26.34375 23.027344 26.390625 22.792969 C 26.410156 22.695312 26.410156 22.695312 26.433594 22.59375 C 26.523438 22.097656 26.464844 21.765625 26.25 21.3125 C 26.230469 21.3125 26.207031 21.3125 26.1875 21.3125 Z M 28.6875 21.5625 C 28.5 21.769531 28.316406 21.976562 28.125 22.1875 C 28.144531 22.230469 28.167969 22.269531 28.1875 22.3125 C 28.378906 22.292969 28.484375 22.261719 28.640625 22.144531 C 28.773438 21.972656 28.792969 21.839844 28.8125 21.625 C 28.769531 21.605469 28.730469 21.582031 28.6875 21.5625 Z M 28.6875 21.5625 "/>
<path style=" stroke:none;fill-rule:nonzero;fill:rgb(71.372551%,80.392158%,57.647061%);fill-opacity:1;" d="M 4.6875 8.5 C 4.824219 8.703125 4.832031 8.800781 4.859375 9.039062 C 4.925781 9.46875 5.074219 9.816406 5.425781 10.085938 C 5.839844 10.335938 6.273438 10.375 6.742188 10.273438 C 7.210938 10.140625 7.652344 9.949219 8.089844 9.734375 C 8.40625 9.585938 8.710938 9.484375 9.0625 9.5 C 9.21875 9.570312 9.21875 9.570312 9.3125 9.6875 C 9.382812 9.980469 9.34375 10.246094 9.214844 10.515625 C 8.554688 11.257812 7.671875 11.480469 6.734375 11.691406 C 5.648438 11.933594 5.648438 11.933594 4.78125 12.597656 C 4.539062 12.992188 4.464844 13.457031 4.378906 13.90625 C 4.296875 14.316406 4.214844 14.699219 4 15.0625 C 3.980469 15.101562 3.957031 15.140625 3.9375 15.179688 C 3.714844 15.542969 3.339844 15.789062 2.933594 15.914062 C 2.488281 15.996094 2.128906 15.949219 1.75 15.6875 C 1.410156 15.367188 1.210938 14.808594 1.175781 14.34375 C 1.121094 12.441406 1.546875 10.703125 2.816406 9.246094 C 3.332031 8.703125 3.917969 8.382812 4.6875 8.5 Z M 3.75 10.5625 C 3.105469 11.28125 2.589844 12.464844 2.625 13.4375 C 2.847656 13.265625 2.902344 13.023438 2.988281 12.769531 C 3.195312 12.1875 3.441406 11.808594 3.953125 11.453125 C 4.070312 11.375 4.070312 11.375 4.1875 11.25 C 4.144531 11.203125 4.144531 11.203125 4.101562 11.152344 C 3.976562 10.964844 3.929688 10.78125 3.875 10.5625 C 3.832031 10.5625 3.792969 10.5625 3.75 10.5625 Z M 3.75 10.5625 "/>
<path style=" stroke:none;fill-rule:nonzero;fill:rgb(54.901963%,72.549021%,69.01961%);fill-opacity:1;" d="M 12.75 14.3125 C 12.980469 14.597656 13.070312 15.003906 13.179688 15.347656 C 13.261719 15.523438 13.332031 15.59375 13.5 15.6875 C 13.78125 15.679688 14.007812 15.625 14.269531 15.527344 C 14.671875 15.386719 15.066406 15.367188 15.464844 15.519531 C 15.902344 15.980469 15.914062 16.566406 15.910156 17.171875 C 15.871094 18.214844 15.535156 19.390625 14.792969 20.15625 C 14.480469 20.433594 14.203125 20.460938 13.796875 20.46875 C 13.5625 20.425781 13.433594 20.339844 13.25 20.1875 C 13.15625 20.046875 13.078125 19.917969 13 19.769531 C 12.957031 19.691406 12.914062 19.613281 12.871094 19.535156 C 12.851562 19.496094 12.828125 19.457031 12.808594 19.417969 C 12.460938 18.78125 12.035156 18.300781 11.339844 18.042969 C 11.042969 17.960938 10.746094 17.929688 10.433594 17.914062 C 8.289062 17.789062 8.289062 17.789062 7.75 17.25 C 7.746094 17.105469 7.746094 16.957031 7.75 16.8125 C 7.796875 16.800781 7.847656 16.785156 7.898438 16.773438 C 8.53125 16.585938 8.902344 16.316406 9.25 15.75 C 9.347656 15.527344 9.4375 15.300781 9.527344 15.070312 C 9.625 14.875 9.683594 14.792969 9.875 14.6875 C 10.191406 14.652344 10.371094 14.683594 10.625 14.875 C 10.773438 14.996094 10.917969 15.121094 11.0625 15.25 C 11.398438 15.074219 11.601562 14.816406 11.84375 14.53125 C 12.121094 14.253906 12.375 14.1875 12.75 14.3125 Z M 11.742188 16.34375 C 11.683594 16.371094 11.628906 16.402344 11.570312 16.429688 C 11.527344 16.453125 11.484375 16.476562 11.4375 16.5 C 11.625 16.625 11.804688 16.703125 12.011719 16.789062 C 12.078125 16.816406 12.148438 16.84375 12.21875 16.875 C 12.296875 16.90625 12.296875 16.90625 12.375 16.9375 C 12.3125 16.691406 12.25 16.441406 12.1875 16.1875 C 12.011719 16.1875 11.898438 16.261719 11.742188 16.34375 Z M 10.125 16.3125 C 10.125 16.375 10.125 16.4375 10.125 16.5 C 10.269531 16.5 10.414062 16.5 10.5625 16.5 C 10.414062 16.351562 10.328125 16.34375 10.125 16.3125 Z M 14.132812 17.074219 C 14.066406 17.109375 13.996094 17.144531 13.925781 17.179688 C 13.605469 17.335938 13.355469 17.421875 13 17.4375 C 13.078125 17.527344 13.078125 17.527344 13.15625 17.617188 C 13.367188 17.863281 13.566406 18.121094 13.761719 18.378906 C 13.816406 18.4375 13.816406 18.4375 13.875 18.5 C 13.9375 18.5 14 18.5 14.0625 18.5 C 14.339844 18.183594 14.488281 17.851562 14.5625 17.4375 C 14.550781 17.222656 14.550781 17.222656 14.5 17.0625 C 14.3125 16.976562 14.3125 16.976562 14.132812 17.074219 Z M 14.132812 17.074219 "/>
<path style=" stroke:none;fill-rule:nonzero;fill:rgb(95.294118%,43.529412%,29.803923%);fill-opacity:1;" d="M 14.238281 3.613281 C 14.640625 3.90625 14.945312 4.230469 15.027344 4.734375 C 15.050781 5.226562 14.890625 5.539062 14.625 5.9375 C 14.582031 5.9375 14.542969 5.9375 14.5 5.9375 C 14.488281 5.972656 14.476562 6.011719 14.460938 6.046875 C 14.335938 6.246094 14.191406 6.304688 13.980469 6.40625 C 13.910156 6.441406 13.839844 6.476562 13.765625 6.515625 C 13.054688 6.832031 12.277344 6.976562 11.515625 7.136719 C 10.792969 7.296875 10.121094 7.535156 9.503906 7.953125 C 9.46875 7.976562 9.433594 8 9.398438 8.023438 C 9.285156 8.097656 9.175781 8.175781 9.0625 8.25 C 8.9375 8.335938 8.8125 8.417969 8.6875 8.503906 C 8.605469 8.558594 8.527344 8.609375 8.445312 8.664062 C 8.015625 8.957031 7.65625 9.152344 7.125 9.0625 C 6.960938 8.953125 6.960938 8.953125 6.875 8.75 C 6.730469 7.742188 7.265625 6.667969 7.84375 5.871094 C 8.027344 5.640625 8.21875 5.425781 8.417969 5.210938 C 8.523438 5.101562 8.617188 4.980469 8.710938 4.863281 C 9.988281 3.425781 12.503906 2.507812 14.238281 3.613281 Z M 9 6.125 C 8.460938 6.699219 8.460938 6.699219 8.1875 7.375 C 8.613281 7.246094 9 7.074219 9.398438 6.878906 C 9.84375 6.664062 10.277344 6.460938 10.75 6.3125 C 10.746094 6.25 10.738281 6.1875 10.734375 6.125 C 10.734375 5.707031 10.984375 5.367188 11.25 5.0625 C 11.703125 4.699219 12.191406 4.519531 12.75 4.375 C 12.75 4.355469 12.75 4.332031 12.75 4.3125 C 11.234375 4.238281 9.988281 5.003906 9 6.125 Z M 12.335938 5.578125 C 12.289062 5.59375 12.238281 5.609375 12.1875 5.625 C 12.042969 5.683594 12.042969 5.683594 11.9375 5.875 C 12.058594 5.847656 12.179688 5.816406 12.300781 5.789062 C 12.402344 5.765625 12.402344 5.765625 12.503906 5.742188 C 12.695312 5.695312 12.695312 5.695312 12.875 5.5625 C 12.667969 5.492188 12.542969 5.507812 12.335938 5.578125 Z M 12.335938 5.578125 "/>
<path style=" stroke:none;fill-rule:nonzero;fill:rgb(98.823529%,99.215686%,98.431373%);fill-opacity:1;" d="M 30 7.1875 C 30.160156 7.273438 30.160156 7.273438 30.25 7.4375 C 30.300781 7.746094 30.300781 8.023438 30.125 8.289062 C 30.082031 8.339844 30.042969 8.386719 30 8.4375 C 30.019531 8.457031 30.042969 8.480469 30.0625 8.5 C 30.285156 8.496094 30.503906 8.488281 30.722656 8.476562 C 30.9375 8.5 30.9375 8.5 31.089844 8.605469 C 31.265625 8.867188 31.226562 9.132812 31.1875 9.4375 C 31.128906 9.625 31.046875 9.773438 30.9375 9.9375 C 30.910156 9.980469 30.882812 10.019531 30.855469 10.0625 C 30.523438 10.519531 30.011719 11.179688 29.5 11.4375 C 29.539062 11.476562 29.578125 11.515625 29.621094 11.558594 C 29.792969 11.8125 29.832031 12.007812 29.8125 12.3125 C 29.722656 12.726562 29.539062 13.023438 29.207031 13.28125 C 28.761719 13.566406 28.277344 13.703125 27.75 13.625 C 27.125 13.46875 26.640625 13.167969 26.269531 12.640625 C 25.855469 11.941406 25.773438 11.179688 25.917969 10.390625 C 26.199219 9.332031 26.875 8.320312 27.8125 7.734375 C 27.964844 7.679688 28.0625 7.679688 28.222656 7.699219 C 28.269531 7.703125 28.316406 7.707031 28.367188 7.714844 C 28.53125 7.757812 28.589844 7.796875 28.6875 7.9375 C 28.746094 8.386719 28.695312 8.820312 28.5625 9.25 C 28.933594 9.035156 28.933594 9.035156 29.3125 8.8125 C 29.1875 8.75 29.066406 8.6875 28.9375 8.625 C 28.832031 8.519531 28.863281 8.382812 28.859375 8.238281 C 28.863281 7.832031 28.953125 7.621094 29.226562 7.320312 C 29.496094 7.152344 29.691406 7.128906 30 7.1875 Z M 28.5625 10.5 C 28.542969 10.542969 28.519531 10.582031 28.5 10.625 C 28.5625 10.605469 28.625 10.582031 28.6875 10.5625 C 28.644531 10.542969 28.605469 10.519531 28.5625 10.5 Z M 28.1875 10.6875 C 28.207031 10.75 28.230469 10.8125 28.25 10.875 C 28.332031 10.792969 28.414062 10.710938 28.5 10.625 C 28.363281 10.617188 28.363281 10.617188 28.1875 10.6875 Z M 28.1875 10.6875 "/>
<path style=" stroke:none;fill-rule:nonzero;fill:rgb(99.607843%,98.431373%,97.647059%);fill-opacity:1;" d="M 20.476562 19.941406 C 21.285156 20.566406 21.566406 21.699219 21.722656 22.660156 C 21.800781 23.3125 21.824219 23.992188 21.421875 24.546875 C 21.257812 24.722656 21.109375 24.804688 20.871094 24.824219 C 20.585938 24.824219 20.390625 24.800781 20.125 24.6875 C 19.910156 24.722656 19.726562 24.8125 19.53125 24.90625 C 19.039062 25.140625 18.503906 25.238281 17.96875 25.078125 C 17.734375 24.96875 17.5625 24.855469 17.4375 24.625 C 17.292969 24.195312 17.351562 23.730469 17.5 23.3125 C 17.410156 23.273438 17.410156 23.273438 17.320312 23.234375 C 17.109375 23.117188 17.074219 23.09375 17 22.875 C 16.988281 22.707031 16.980469 22.546875 16.980469 22.378906 C 16.980469 22.335938 16.976562 22.289062 16.976562 22.246094 C 16.976562 21.960938 17.023438 21.792969 17.1875 21.5625 C 17.21875 21.507812 17.246094 21.453125 17.277344 21.394531 C 17.683594 20.652344 18.21875 19.96875 19.035156 19.667969 C 19.5625 19.5625 20.023438 19.65625 20.476562 19.941406 Z M 18.671875 21.375 C 18.628906 21.441406 18.585938 21.507812 18.542969 21.574219 C 18.5 21.640625 18.457031 21.707031 18.410156 21.777344 C 18.308594 21.914062 18.308594 21.914062 18.3125 22 C 18.460938 22.007812 18.609375 22.011719 18.757812 22.015625 C 18.800781 22.019531 18.839844 22.019531 18.882812 22.023438 C 19.207031 22.027344 19.371094 21.941406 19.625 21.75 C 19.769531 21.691406 19.910156 21.660156 20.0625 21.625 C 19.910156 21.332031 19.789062 21.109375 19.5 20.9375 C 19.097656 20.871094 18.90625 21.0625 18.671875 21.375 Z M 18.8125 23.4375 C 18.792969 23.539062 18.769531 23.644531 18.75 23.75 C 18.90625 23.8125 18.90625 23.8125 19.0625 23.875 C 19.125 23.8125 19.1875 23.75 19.25 23.6875 C 19.035156 23.5625 19.035156 23.5625 18.8125 23.4375 Z M 18.8125 23.4375 "/>
<path style=" stroke:none;fill-rule:nonzero;fill:rgb(95.294118%,43.921569%,30.588236%);fill-opacity:1;" d="M 21.984375 2.128906 C 22.277344 2.378906 22.453125 2.640625 22.632812 2.976562 C 22.871094 3.421875 22.871094 3.421875 23.25 3.75 C 23.664062 3.824219 23.96875 3.652344 24.3125 3.4375 C 24.472656 3.324219 24.628906 3.207031 24.785156 3.089844 C 25.660156 2.433594 25.660156 2.433594 26.25 2.5 C 26.449219 2.546875 26.53125 2.578125 26.644531 2.75 C 26.796875 3.417969 26.601562 3.980469 26.269531 4.5625 C 25.59375 5.632812 24.601562 6.5 23.347656 6.785156 C 22.734375 6.890625 22.132812 6.816406 21.609375 6.464844 C 21.054688 6.011719 20.832031 5.3125 20.75 4.625 C 20.710938 3.949219 20.769531 3.34375 20.9375 2.6875 C 20.953125 2.628906 20.96875 2.566406 20.984375 2.507812 C 21.027344 2.351562 21.027344 2.351562 21.125 2.125 C 21.394531 2.023438 21.730469 1.976562 21.984375 2.128906 Z M 22.4375 5.0625 C 22.625 5.261719 22.742188 5.367188 23.027344 5.386719 C 23.109375 5.386719 23.109375 5.386719 23.191406 5.386719 C 23.246094 5.386719 23.300781 5.386719 23.359375 5.390625 C 23.511719 5.390625 23.511719 5.390625 23.625 5.25 C 23.527344 5.238281 23.527344 5.238281 23.429688 5.226562 C 23.34375 5.214844 23.257812 5.203125 23.171875 5.191406 C 23.109375 5.183594 23.109375 5.183594 23.042969 5.175781 C 22.835938 5.148438 22.636719 5.121094 22.4375 5.0625 Z M 22.4375 5.0625 "/>
<path style=" stroke:none;fill-rule:nonzero;fill:rgb(98.823529%,99.215686%,98.039216%);fill-opacity:1;" d="M 4.6875 8.5 C 4.824219 8.703125 4.832031 8.800781 4.859375 9.039062 C 4.925781 9.46875 5.074219 9.816406 5.425781 10.085938 C 5.839844 10.335938 6.273438 10.375 6.742188 10.273438 C 7.210938 10.140625 7.652344 9.949219 8.089844 9.734375 C 8.40625 9.585938 8.710938 9.484375 9.0625 9.5 C 9.21875 9.570312 9.21875 9.570312 9.3125 9.6875 C 9.382812 9.980469 9.34375 10.246094 9.214844 10.515625 C 8.554688 11.257812 7.671875 11.480469 6.734375 11.691406 C 5.648438 11.933594 5.648438 11.933594 4.78125 12.597656 C 4.539062 12.992188 4.464844 13.457031 4.378906 13.90625 C 4.296875 14.316406 4.214844 14.699219 4 15.0625 C 3.980469 15.101562 3.957031 15.140625 3.9375 15.179688 C 3.714844 15.542969 3.339844 15.789062 2.933594 15.914062 C 2.488281 15.996094 2.128906 15.949219 1.75 15.6875 C 1.410156 15.367188 1.210938 14.808594 1.175781 14.34375 C 1.121094 12.441406 1.546875 10.703125 2.816406 9.246094 C 3.332031 8.703125 3.917969 8.382812 4.6875 8.5 Z M 3.4375 9.375 C 3.390625 9.414062 3.34375 9.457031 3.296875 9.496094 C 2.902344 9.863281 2.636719 10.28125 2.375 10.75 C 2.351562 10.792969 2.324219 10.835938 2.300781 10.882812 C 2.003906 11.4375 1.789062 12.066406 1.6875 12.6875 C 1.679688 12.730469 1.671875 12.769531 1.667969 12.8125 C 1.539062 13.742188 1.566406 14.574219 2.113281 15.347656 C 2.320312 15.484375 2.511719 15.480469 2.75 15.4375 C 3.1875 15.3125 3.464844 15.011719 3.6875 14.625 C 3.84375 14.242188 3.921875 13.847656 3.992188 13.441406 C 4.113281 12.808594 4.253906 12.265625 4.785156 11.851562 C 5.332031 11.484375 5.976562 11.359375 6.609375 11.230469 C 7.898438 10.953125 7.898438 10.953125 8.875 10.125 C 8.875 10.082031 8.875 10.042969 8.875 10 C 8.464844 10.039062 8.132812 10.230469 7.769531 10.417969 C 7.101562 10.75 6.308594 10.890625 5.574219 10.683594 C 5.105469 10.5 4.785156 10.152344 4.558594 9.710938 C 4.464844 9.476562 4.417969 9.246094 4.375 9 C 3.945312 8.945312 3.75 9.09375 3.4375 9.375 Z M 3.4375 9.375 "/>
<path style=" stroke:none;fill-rule:nonzero;fill:rgb(94.509804%,85.490197%,45.490196%);fill-opacity:1;" d="M 4.957031 26.226562 C 5.4375 26.625 5.6875 27.066406 5.75 27.6875 C 5.796875 28.285156 5.660156 28.941406 5.3125 29.4375 C 4.976562 29.816406 4.632812 30.058594 4.125 30.125 C 3.613281 30.152344 3.199219 30.023438 2.8125 29.6875 C 2.363281 29.121094 2.289062 28.574219 2.292969 27.871094 C 2.292969 27.804688 2.289062 27.738281 2.289062 27.667969 C 2.289062 27.234375 2.324219 26.945312 2.625 26.609375 C 3.230469 26.074219 4.199219 25.75 4.957031 26.226562 Z M 4.957031 26.226562 "/>
<path style=" stroke:none;fill-rule:nonzero;fill:rgb(98.823529%,98.823529%,98.823529%);fill-opacity:1;" d="M 12.75 14.3125 C 12.980469 14.597656 13.070312 15.003906 13.179688 15.347656 C 13.261719 15.523438 13.332031 15.59375 13.5 15.6875 C 13.78125 15.679688 14.007812 15.625 14.269531 15.527344 C 14.671875 15.386719 15.066406 15.367188 15.464844 15.519531 C 15.902344 15.980469 15.914062 16.566406 15.910156 17.171875 C 15.871094 18.214844 15.535156 19.390625 14.792969 20.15625 C 14.480469 20.433594 14.203125 20.460938 13.796875 20.46875 C 13.5625 20.425781 13.433594 20.339844 13.25 20.1875 C 13.15625 20.046875 13.078125 19.917969 13 19.769531 C 12.957031 19.691406 12.914062 19.613281 12.871094 19.535156 C 12.851562 19.496094 12.828125 19.457031 12.808594 19.417969 C 12.460938 18.78125 12.035156 18.300781 11.339844 18.042969 C 11.042969 17.960938 10.746094 17.929688 10.433594 17.914062 C 8.289062 17.789062 8.289062 17.789062 7.75 17.25 C 7.746094 17.105469 7.746094 16.957031 7.75 16.8125 C 7.796875 16.800781 7.847656 16.785156 7.898438 16.773438 C 8.53125 16.585938 8.902344 16.316406 9.25 15.75 C 9.347656 15.527344 9.4375 15.300781 9.527344 15.070312 C 9.625 14.875 9.683594 14.792969 9.875 14.6875 C 10.191406 14.652344 10.371094 14.683594 10.625 14.875 C 10.773438 14.996094 10.917969 15.121094 11.0625 15.25 C 11.398438 15.074219 11.601562 14.816406 11.84375 14.53125 C 12.121094 14.253906 12.375 14.1875 12.75 14.3125 Z M 12.3125 14.75 C 12.289062 14.777344 12.265625 14.800781 12.238281 14.828125 C 12.132812 14.949219 12.023438 15.066406 11.914062 15.183594 C 11.875 15.226562 11.839844 15.265625 11.800781 15.308594 C 11.761719 15.347656 11.726562 15.386719 11.691406 15.425781 C 11.640625 15.480469 11.640625 15.480469 11.589844 15.539062 C 11.40625 15.71875 11.214844 15.71875 10.964844 15.71875 C 10.726562 15.667969 10.597656 15.527344 10.433594 15.351562 C 10.289062 15.230469 10.183594 15.210938 10 15.1875 C 9.953125 15.292969 9.953125 15.292969 9.90625 15.402344 C 9.566406 16.160156 9.277344 16.695312 8.5 17.0625 C 8.875 17.4375 9.515625 17.398438 10.007812 17.402344 C 11.035156 17.429688 11.964844 17.5625 12.722656 18.332031 C 12.976562 18.640625 13.15625 19 13.339844 19.351562 C 13.527344 19.714844 13.527344 19.714844 13.8125 20 C 14.085938 20.015625 14.261719 19.953125 14.464844 19.777344 C 15.203125 18.96875 15.460938 17.800781 15.445312 16.738281 C 15.429688 16.441406 15.375 16.226562 15.214844 15.96875 C 15.007812 15.84375 14.878906 15.867188 14.648438 15.902344 C 14.507812 15.933594 14.390625 15.980469 14.261719 16.035156 C 13.941406 16.164062 13.589844 16.195312 13.25 16.125 C 12.902344 15.902344 12.796875 15.683594 12.675781 15.296875 C 12.621094 15.132812 12.566406 14.972656 12.5 14.8125 C 12.4375 14.792969 12.375 14.769531 12.3125 14.75 Z M 12.3125 14.75 "/>
<path style=" stroke:none;fill-rule:nonzero;fill:rgb(99.215686%,98.431373%,97.647059%);fill-opacity:1;" d="M 13.847656 4.175781 C 14.046875 4.347656 14.203125 4.507812 14.3125 4.75 C 14.328125 5.078125 14.269531 5.253906 14.070312 5.511719 C 13.644531 5.953125 13.058594 6.089844 12.484375 6.246094 C 12.230469 6.316406 11.980469 6.394531 11.726562 6.472656 C 11.6875 6.484375 11.644531 6.496094 11.605469 6.511719 C 11.097656 6.667969 10.605469 6.867188 10.117188 7.078125 C 10.03125 7.113281 10.03125 7.113281 9.941406 7.152344 C 9.644531 7.28125 9.355469 7.414062 9.066406 7.570312 C 8.679688 7.78125 8.320312 7.921875 7.875 7.8125 C 7.761719 7.742188 7.761719 7.742188 7.6875 7.625 C 7.640625 7.273438 7.730469 7.054688 7.925781 6.773438 C 7.949219 6.734375 7.976562 6.699219 8 6.660156 C 8.285156 6.25 8.605469 5.871094 8.9375 5.5 C 8.976562 5.457031 9.011719 5.414062 9.050781 5.371094 C 10.15625 4.203125 12.335938 3.113281 13.847656 4.175781 Z M 9 6.125 C 8.460938 6.699219 8.460938 6.699219 8.1875 7.375 C 8.613281 7.246094 9 7.074219 9.398438 6.878906 C 9.84375 6.664062 10.277344 6.460938 10.75 6.3125 C 10.746094 6.25 10.738281 6.1875 10.734375 6.125 C 10.734375 5.707031 10.984375 5.367188 11.25 5.0625 C 11.703125 4.699219 12.191406 4.519531 12.75 4.375 C 12.75 4.355469 12.75 4.332031 12.75 4.3125 C 11.234375 4.238281 9.988281 5.003906 9 6.125 Z M 12.335938 5.578125 C 12.289062 5.59375 12.238281 5.609375 12.1875 5.625 C 12.042969 5.683594 12.042969 5.683594 11.9375 5.875 C 12.058594 5.847656 12.179688 5.816406 12.300781 5.789062 C 12.402344 5.765625 12.402344 5.765625 12.503906 5.742188 C 12.695312 5.695312 12.695312 5.695312 12.875 5.5625 C 12.667969 5.492188 12.542969 5.507812 12.335938 5.578125 Z M 12.335938 5.578125 "/>
<path style=" stroke:none;fill-rule:nonzero;fill:rgb(70.980394%,80.392158%,57.254905%);fill-opacity:1;" d="M 14.523438 25.039062 C 14.828125 25.296875 14.980469 25.570312 15.019531 25.964844 C 15.027344 26.644531 14.921875 27.125 14.449219 27.632812 C 13.960938 28.050781 13.410156 28.222656 12.78125 28.175781 C 12.320312 28.109375 11.933594 27.925781 11.644531 27.550781 C 11.402344 27.136719 11.375 26.722656 11.4375 26.25 C 11.570312 25.753906 11.785156 25.402344 12.214844 25.117188 C 12.90625 24.722656 13.839844 24.546875 14.523438 25.039062 Z M 14.523438 25.039062 "/>
<path style=" stroke:none;fill-rule:nonzero;fill:rgb(99.607843%,98.039216%,97.647059%);fill-opacity:1;" d="M 21.984375 2.128906 C 22.277344 2.378906 22.453125 2.640625 22.632812 2.976562 C 22.871094 3.421875 22.871094 3.421875 23.25 3.75 C 23.664062 3.824219 23.96875 3.652344 24.3125 3.4375 C 24.472656 3.324219 24.628906 3.207031 24.785156 3.089844 C 25.660156 2.433594 25.660156 2.433594 26.25 2.5 C 26.449219 2.546875 26.53125 2.578125 26.644531 2.75 C 26.796875 3.417969 26.601562 3.980469 26.269531 4.5625 C 25.59375 5.632812 24.601562 6.5 23.347656 6.785156 C 22.734375 6.890625 22.132812 6.816406 21.609375 6.464844 C 21.054688 6.011719 20.832031 5.3125 20.75 4.625 C 20.710938 3.949219 20.769531 3.34375 20.9375 2.6875 C 20.953125 2.628906 20.96875 2.566406 20.984375 2.507812 C 21.027344 2.351562 21.027344 2.351562 21.125 2.125 C 21.394531 2.023438 21.730469 1.976562 21.984375 2.128906 Z M 21.4375 2.5625 C 21.082031 3.398438 21.0625 4.4375 21.371094 5.292969 C 21.574219 5.742188 21.902344 6.128906 22.375 6.3125 C 23.25 6.4375 23.863281 6.167969 24.570312 5.675781 C 25.273438 5.125 25.902344 4.421875 26.1875 3.5625 C 26.203125 3.410156 26.203125 3.410156 26.195312 3.261719 C 26.195312 3.210938 26.191406 3.164062 26.191406 3.113281 C 26.191406 3.074219 26.1875 3.039062 26.1875 3 C 25.867188 2.972656 25.714844 3.039062 25.453125 3.222656 C 25.386719 3.269531 25.324219 3.3125 25.253906 3.359375 C 25.136719 3.445312 25.015625 3.53125 24.898438 3.621094 C 24.398438 3.980469 23.886719 4.335938 23.25 4.25 C 22.703125 4.097656 22.441406 3.6875 22.171875 3.222656 C 22.109375 3.105469 22.042969 2.988281 21.980469 2.875 C 21.886719 2.6875 21.886719 2.6875 21.75 2.5625 C 21.589844 2.550781 21.589844 2.550781 21.4375 2.5625 Z M 21.4375 2.5625 "/>
<path style=" stroke:none;fill-rule:nonzero;fill:rgb(95.294118%,43.921569%,30.588236%);fill-opacity:1;" d="M 28.148438 18.125 C 28.613281 18.273438 29.050781 18.265625 29.535156 18.246094 C 29.617188 18.242188 29.617188 18.242188 29.707031 18.242188 C 29.757812 18.238281 29.808594 18.234375 29.859375 18.234375 C 30.039062 18.253906 30.121094 18.316406 30.25 18.4375 C 30.363281 18.816406 30.199219 19.15625 30.03125 19.488281 C 29.929688 19.632812 29.832031 19.714844 29.6875 19.8125 C 29.589844 19.734375 29.589844 19.734375 29.5 19.625 C 29.519531 19.433594 29.578125 19.351562 29.6875 19.1875 C 29.714844 18.964844 29.714844 18.964844 29.6875 18.75 C 29.5 18.625 29.460938 18.609375 29.25 18.613281 C 29.1875 18.613281 29.1875 18.613281 29.121094 18.613281 C 28.988281 18.621094 28.988281 18.621094 28.8125 18.6875 C 28.507812 18.722656 28.265625 18.714844 27.996094 18.5625 C 27.75 18.425781 27.53125 18.371094 27.25 18.4375 C 26.777344 18.648438 26.511719 19.003906 26.25 19.4375 C 26.226562 19.476562 26.199219 19.515625 26.175781 19.558594 C 25.796875 20.21875 25.742188 21.085938 25.738281 21.832031 C 25.738281 21.882812 25.738281 21.929688 25.734375 21.980469 C 25.734375 22.078125 25.734375 22.179688 25.734375 22.28125 C 25.734375 22.433594 25.734375 22.585938 25.730469 22.738281 C 25.726562 23.230469 25.730469 23.667969 25.9375 24.125 C 26.007812 24.207031 26.007812 24.207031 26.175781 24.214844 C 26.382812 24.207031 26.382812 24.207031 26.503906 24.046875 C 26.6875 23.746094 26.703125 23.398438 26.746094 23.058594 C 26.90625 21.957031 27.210938 21.082031 28.125 20.378906 C 28.167969 20.355469 28.207031 20.335938 28.25 20.3125 C 28.4375 20.375 28.4375 20.375 28.546875 20.515625 C 28.640625 20.722656 28.632812 20.785156 28.5625 21 C 28.4375 21.148438 28.4375 21.148438 28.28125 21.308594 C 27.550781 22.085938 27.128906 22.960938 26.902344 24 C 26.820312 24.375 26.71875 24.71875 26.4375 25 C 26.261719 25.011719 26.261719 25.011719 26.054688 25.007812 C 25.984375 25.007812 25.917969 25.003906 25.847656 25.003906 C 25.792969 25.003906 25.742188 25 25.6875 25 C 25.511719 24.6875 25.4375 24.394531 25.367188 24.046875 C 25.351562 23.972656 25.351562 23.972656 25.335938 23.894531 C 25.011719 22.320312 25.023438 20.402344 25.867188 18.992188 C 26.449219 18.136719 27.136719 17.78125 28.148438 18.125 Z M 28.148438 18.125 "/>
<path style=" stroke:none;fill-rule:nonzero;fill:rgb(98.431373%,98.823529%,98.431373%);fill-opacity:1;" d="M 12.375 15.6875 C 12.613281 15.890625 12.675781 16.140625 12.769531 16.425781 C 12.828125 16.605469 12.871094 16.734375 13 16.875 C 13.324219 16.929688 13.496094 16.890625 13.773438 16.71875 C 14.078125 16.535156 14.339844 16.492188 14.6875 16.5625 C 14.882812 16.671875 14.882812 16.671875 15 16.875 C 15.09375 17.503906 14.941406 18.117188 14.585938 18.640625 C 14.40625 18.871094 14.234375 19.03125 13.945312 19.113281 C 13.523438 19.003906 13.269531 18.59375 13.019531 18.257812 C 12.585938 17.707031 11.933594 17.179688 11.25 17 C 10.769531 16.953125 10.289062 16.996094 9.8125 17.0625 C 9.792969 17.019531 9.769531 16.980469 9.75 16.9375 C 9.625 16.867188 9.625 16.867188 9.5 16.8125 C 9.539062 16.554688 9.632812 16.359375 9.75 16.125 C 9.792969 16 9.835938 15.875 9.875 15.75 C 10.101562 15.722656 10.226562 15.765625 10.417969 15.875 C 10.714844 16.03125 10.980469 16.0625 11.3125 16 C 11.480469 15.929688 11.632812 15.84375 11.792969 15.757812 C 12 15.65625 12.148438 15.640625 12.375 15.6875 Z M 11.742188 16.34375 C 11.683594 16.371094 11.628906 16.402344 11.570312 16.429688 C 11.527344 16.453125 11.484375 16.476562 11.4375 16.5 C 11.625 16.625 11.804688 16.703125 12.011719 16.789062 C 12.078125 16.816406 12.148438 16.84375 12.21875 16.875 C 12.296875 16.90625 12.296875 16.90625 12.375 16.9375 C 12.3125 16.691406 12.25 16.441406 12.1875 16.1875 C 12.011719 16.1875 11.898438 16.261719 11.742188 16.34375 Z M 10.125 16.3125 C 10.125 16.375 10.125 16.4375 10.125 16.5 C 10.269531 16.5 10.414062 16.5 10.5625 16.5 C 10.414062 16.351562 10.328125 16.34375 10.125 16.3125 Z M 14.132812 17.074219 C 14.066406 17.109375 13.996094 17.144531 13.925781 17.179688 C 13.605469 17.335938 13.355469 17.421875 13 17.4375 C 13.078125 17.527344 13.078125 17.527344 13.15625 17.617188 C 13.367188 17.863281 13.566406 18.121094 13.761719 18.378906 C 13.816406 18.4375 13.816406 18.4375 13.875 18.5 C 13.9375 18.5 14 18.5 14.0625 18.5 C 14.339844 18.183594 14.488281 17.851562 14.5625 17.4375 C 14.550781 17.222656 14.550781 17.222656 14.5 17.0625 C 14.3125 16.976562 14.3125 16.976562 14.132812 17.074219 Z M 14.132812 17.074219 "/>
<path style=" stroke:none;fill-rule:nonzero;fill:rgb(99.607843%,98.823529%,98.039216%);fill-opacity:1;" d="M 30.0625 1.3125 C 30.324219 1.535156 30.476562 1.820312 30.519531 2.164062 C 30.527344 2.5625 30.488281 2.859375 30.25 3.1875 C 29.949219 3.488281 29.644531 3.570312 29.230469 3.585938 C 28.828125 3.578125 28.507812 3.480469 28.199219 3.214844 C 27.914062 2.90625 27.773438 2.578125 27.726562 2.160156 C 27.734375 2.085938 27.742188 2.011719 27.75 1.9375 C 27.753906 1.890625 27.757812 1.84375 27.761719 1.796875 C 27.792969 1.621094 27.832031 1.519531 27.9375 1.375 C 28.625 0.984375 29.371094 0.914062 30.0625 1.3125 Z M 30.0625 1.3125 "/>
<path style=" stroke:none;fill-rule:nonzero;fill:rgb(99.215686%,99.215686%,98.431373%);fill-opacity:1;" d="M 22.945312 0.519531 C 23.238281 0.742188 23.410156 1.015625 23.5 1.375 C 23.542969 1.773438 23.566406 2.109375 23.3125 2.4375 C 23.019531 2.519531 22.890625 2.539062 22.617188 2.40625 C 22.441406 2.253906 22.292969 2.09375 22.148438 1.910156 C 22.03125 1.777344 21.925781 1.695312 21.746094 1.667969 C 21.402344 1.660156 21.210938 1.710938 20.9375 1.9375 C 20.894531 1.980469 20.855469 2.019531 20.8125 2.0625 C 20.671875 2.066406 20.671875 2.066406 20.503906 2.046875 C 20.449219 2.042969 20.394531 2.035156 20.339844 2.03125 C 20.1875 2 20.1875 2 20 1.875 C 19.90625 1.589844 19.90625 1.347656 20 1.0625 C 20.65625 0.078125 21.964844 -0.0820312 22.945312 0.519531 Z M 22.945312 0.519531 "/>
<path style=" stroke:none;fill-rule:nonzero;fill:rgb(97.254902%,95.686275%,88.235295%);fill-opacity:1;" d="M 16.652344 1.007812 C 16.890625 1.273438 16.992188 1.539062 17.007812 1.898438 C 16.980469 2.300781 16.832031 2.554688 16.535156 2.828125 C 16.097656 3.125 15.632812 3.105469 15.125 3.0625 C 14.695312 2.949219 14.449219 2.675781 14.230469 2.296875 C 14.144531 1.957031 14.144531 1.625 14.257812 1.292969 C 14.46875 0.988281 14.664062 0.820312 15.023438 0.730469 C 15.589844 0.632812 16.171875 0.660156 16.652344 1.007812 Z M 16.652344 1.007812 "/>
<path style=" stroke:none;fill-rule:nonzero;fill:rgb(54.509807%,72.156864%,68.235296%);fill-opacity:1;" d="M 15.1875 5.6875 C 15.230469 5.6875 15.269531 5.6875 15.3125 5.6875 C 15.785156 6.234375 15.914062 6.835938 15.898438 7.542969 C 15.867188 7.839844 15.777344 8.058594 15.625 8.3125 C 15.601562 8.355469 15.578125 8.398438 15.554688 8.441406 C 15.199219 9.066406 14.695312 9.480469 14 9.6875 C 13.351562 9.800781 12.800781 9.683594 12.25 9.3125 C 11.722656 8.941406 11.324219 8.398438 11.0625 7.8125 C 11.0625 7.75 11.0625 7.6875 11.0625 7.625 C 11.277344 7.59375 11.277344 7.59375 11.5 7.5625 C 11.539062 7.628906 11.539062 7.628906 11.582031 7.699219 C 11.972656 8.34375 12.320312 8.6875 13.0625 8.875 C 13.570312 8.945312 14.035156 8.804688 14.453125 8.523438 C 14.726562 8.308594 14.917969 8.023438 15 7.6875 C 15.042969 7.21875 15.019531 6.859375 14.8125 6.4375 C 14.839844 6.238281 14.921875 6.089844 15.027344 5.921875 C 15.054688 5.878906 15.082031 5.832031 15.109375 5.789062 C 15.148438 5.738281 15.148438 5.738281 15.1875 5.6875 Z M 15.1875 5.6875 "/>
<path style=" stroke:none;fill-rule:nonzero;fill:rgb(99.607843%,99.215686%,98.039216%);fill-opacity:1;" d="M 4.957031 26.226562 C 5.4375 26.625 5.6875 27.066406 5.75 27.6875 C 5.796875 28.285156 5.660156 28.941406 5.3125 29.4375 C 4.976562 29.816406 4.632812 30.058594 4.125 30.125 C 3.613281 30.152344 3.199219 30.023438 2.8125 29.6875 C 2.363281 29.121094 2.289062 28.574219 2.292969 27.871094 C 2.292969 27.804688 2.289062 27.738281 2.289062 27.667969 C 2.289062 27.234375 2.324219 26.945312 2.625 26.609375 C 3.230469 26.074219 4.199219 25.75 4.957031 26.226562 Z M 3.1875 26.75 C 2.863281 27.316406 2.648438 27.867188 2.777344 28.519531 C 2.902344 28.941406 3.125 29.273438 3.457031 29.5625 C 3.777344 29.679688 4.070312 29.667969 4.390625 29.550781 C 4.855469 29.246094 5.097656 28.839844 5.25 28.3125 C 5.304688 27.824219 5.300781 27.402344 5.027344 26.984375 C 4.808594 26.714844 4.546875 26.519531 4.203125 26.480469 C 3.636719 26.460938 3.636719 26.460938 3.1875 26.75 Z M 3.1875 26.75 "/>
<path style=" stroke:none;fill-rule:nonzero;fill:rgb(99.607843%,98.431373%,98.039216%);fill-opacity:1;" d="M 6.1875 5.75 C 6.386719 5.859375 6.425781 5.90625 6.5 6.125 C 6.550781 6.601562 6.472656 7.039062 6.371094 7.5 C 6.230469 8.15625 6.226562 8.679688 6.460938 9.3125 C 6.515625 9.488281 6.527344 9.632812 6.5 9.8125 C 6.402344 9.941406 6.347656 9.996094 6.183594 10.019531 C 5.925781 9.996094 5.734375 9.960938 5.546875 9.773438 C 5.003906 9.046875 4.894531 7.929688 5.019531 7.058594 C 5.113281 6.558594 5.246094 6.160156 5.625 5.8125 C 5.816406 5.71875 5.976562 5.734375 6.1875 5.75 Z M 6.1875 5.75 "/>
<path style=" stroke:none;fill-rule:nonzero;fill:rgb(99.215686%,99.215686%,98.823529%);fill-opacity:1;" d="M 14.523438 25.039062 C 14.828125 25.296875 14.980469 25.570312 15.019531 25.964844 C 15.027344 26.644531 14.921875 27.125 14.449219 27.632812 C 13.960938 28.050781 13.410156 28.222656 12.78125 28.175781 C 12.320312 28.109375 11.933594 27.925781 11.644531 27.550781 C 11.402344 27.136719 11.375 26.722656 11.4375 26.25 C 11.570312 25.753906 11.785156 25.402344 12.214844 25.117188 C 12.90625 24.722656 13.839844 24.546875 14.523438 25.039062 Z M 12.125 25.875 C 11.914062 26.175781 11.828125 26.441406 11.875 26.8125 C 11.988281 27.195312 12.183594 27.398438 12.5 27.625 C 12.785156 27.765625 13.171875 27.726562 13.46875 27.640625 C 13.90625 27.457031 14.261719 27.1875 14.503906 26.777344 C 14.625 26.464844 14.609375 26.140625 14.5625 25.8125 C 14.425781 25.523438 14.28125 25.390625 14 25.25 C 13.253906 25.152344 12.628906 25.304688 12.125 25.875 Z M 12.125 25.875 "/>
<path style=" stroke:none;fill-rule:nonzero;fill:rgb(98.431373%,98.823529%,97.647059%);fill-opacity:1;" d="M 3.871094 9.917969 C 4.0625 9.9375 4.0625 9.9375 4.164062 10.011719 C 4.269531 10.152344 4.289062 10.265625 4.320312 10.4375 C 4.382812 10.679688 4.382812 10.679688 4.570312 10.828125 C 4.722656 10.878906 4.722656 10.878906 4.871094 10.90625 C 5 10.9375 5 10.9375 5.125 11.0625 C 5.132812 11.207031 5.132812 11.207031 5.0625 11.375 C 4.863281 11.535156 4.632812 11.652344 4.40625 11.769531 C 3.941406 12.023438 3.628906 12.339844 3.441406 12.84375 C 3.414062 12.949219 3.386719 13.050781 3.359375 13.15625 C 3.257812 13.496094 3.097656 13.898438 2.8125 14.125 C 2.613281 14.136719 2.613281 14.136719 2.4375 14.125 C 2.128906 13.691406 2.140625 13.328125 2.214844 12.816406 C 2.410156 11.839844 2.800781 10.734375 3.5625 10.0625 C 3.6875 9.9375 3.6875 9.9375 3.871094 9.917969 Z M 3.75 10.5625 C 3.105469 11.28125 2.589844 12.464844 2.625 13.4375 C 2.847656 13.265625 2.902344 13.023438 2.988281 12.769531 C 3.195312 12.1875 3.441406 11.808594 3.953125 11.453125 C 4.070312 11.375 4.070312 11.375 4.1875 11.25 C 4.144531 11.203125 4.144531 11.203125 4.101562 11.152344 C 3.976562 10.964844 3.929688 10.78125 3.875 10.5625 C 3.832031 10.5625 3.792969 10.5625 3.75 10.5625 Z M 3.75 10.5625 "/>
<path style=" stroke:none;fill-rule:nonzero;fill:rgb(99.607843%,97.254902%,96.470588%);fill-opacity:1;" d="M 21.6875 3.5625 C 21.871094 3.578125 21.976562 3.609375 22.125 3.722656 C 22.230469 3.851562 22.316406 3.976562 22.402344 4.121094 C 22.554688 4.371094 22.714844 4.617188 22.992188 4.738281 C 23.058594 4.742188 23.058594 4.742188 23.125 4.75 C 23.1875 4.757812 23.25 4.769531 23.3125 4.777344 C 23.800781 4.769531 24.265625 4.445312 24.597656 4.109375 C 24.636719 4.066406 24.671875 4.027344 24.710938 3.984375 C 24.863281 3.820312 24.964844 3.753906 25.191406 3.734375 C 25.375 3.75 25.375 3.75 25.5 3.875 C 25.46875 4.421875 25.050781 4.847656 24.667969 5.207031 C 24.203125 5.601562 23.691406 5.898438 23.070312 5.890625 C 22.664062 5.847656 22.246094 5.644531 21.972656 5.335938 C 21.679688 4.949219 21.605469 4.585938 21.613281 4.105469 C 21.613281 4.058594 21.613281 4.015625 21.613281 3.96875 C 21.617188 3.632812 21.617188 3.632812 21.6875 3.5625 Z M 22.4375 5.0625 C 22.625 5.261719 22.742188 5.367188 23.027344 5.386719 C 23.109375 5.386719 23.109375 5.386719 23.191406 5.386719 C 23.246094 5.386719 23.300781 5.386719 23.359375 5.390625 C 23.511719 5.390625 23.511719 5.390625 23.625 5.25 C 23.527344 5.238281 23.527344 5.238281 23.429688 5.226562 C 23.34375 5.214844 23.257812 5.203125 23.171875 5.191406 C 23.109375 5.183594 23.109375 5.183594 23.042969 5.175781 C 22.835938 5.148438 22.636719 5.121094 22.4375 5.0625 Z M 22.4375 5.0625 "/>
<path style=" stroke:none;fill-rule:nonzero;fill:rgb(54.901963%,72.549021%,68.627453%);fill-opacity:1;" d="M 28.5625 19.4375 C 29.023438 19.789062 29.351562 20.179688 29.625 20.6875 C 29.648438 20.726562 29.671875 20.769531 29.695312 20.8125 C 29.914062 21.292969 29.890625 21.914062 29.710938 22.402344 C 29.519531 22.808594 29.261719 23.144531 28.847656 23.335938 C 28.492188 23.425781 28.109375 23.410156 27.75 23.375 C 27.65625 23.3125 27.65625 23.3125 27.5625 23.25 C 27.59375 23.015625 27.617188 22.886719 27.75 22.6875 C 27.941406 22.679688 27.941406 22.679688 28.171875 22.691406 C 28.53125 22.707031 28.53125 22.707031 28.859375 22.582031 C 29.128906 22.304688 29.148438 22.015625 29.144531 21.640625 C 29.144531 21.597656 29.144531 21.550781 29.144531 21.503906 C 29.128906 20.867188 28.90625 20.363281 28.46875 19.898438 C 28.132812 19.597656 27.773438 19.523438 27.335938 19.535156 C 27.167969 19.554688 27.167969 19.554688 26.992188 19.710938 C 26.816406 19.972656 26.835938 20.261719 26.875 20.5625 C 26.914062 20.679688 26.914062 20.679688 26.953125 20.796875 C 27 21 27 21 26.882812 21.214844 C 26.816406 21.292969 26.816406 21.292969 26.75 21.375 C 26.523438 21.039062 26.441406 20.652344 26.5 20.25 C 26.632812 19.808594 26.878906 19.414062 27.265625 19.15625 C 27.734375 19.070312 28.171875 19.171875 28.5625 19.4375 Z M 28.5625 19.4375 "/>
<path style=" stroke:none;fill-rule:nonzero;fill:rgb(99.607843%,98.431373%,98.039216%);fill-opacity:1;" d="M 30.8125 11 C 31.09375 11.136719 31.3125 11.292969 31.503906 11.542969 C 31.625 11.972656 31.621094 12.359375 31.433594 12.769531 C 31.242188 13.113281 31 13.332031 30.660156 13.523438 C 30.335938 13.601562 30.046875 13.605469 29.75 13.4375 C 29.714844 13.078125 29.71875 12.886719 29.9375 12.589844 C 30.074219 12.40625 30.15625 12.28125 30.164062 12.050781 C 30.140625 11.808594 30.140625 11.808594 29.992188 11.617188 C 29.875 11.4375 29.875 11.4375 29.90625 11.234375 C 30.109375 10.863281 30.445312 10.898438 30.8125 11 Z M 30.8125 11 "/>
<path style=" stroke:none;fill-rule:nonzero;fill:rgb(55.686277%,72.941178%,69.411767%);fill-opacity:1;" d="M 28.25 8.1875 C 28.222656 8.574219 28.148438 8.890625 28.003906 9.25 C 27.84375 9.707031 27.792969 10.152344 27.773438 10.628906 C 27.769531 10.683594 27.769531 10.738281 27.765625 10.792969 C 27.761719 10.925781 27.753906 11.054688 27.75 11.1875 C 27.535156 11.21875 27.535156 11.21875 27.3125 11.25 C 27.296875 10.867188 27.371094 10.550781 27.472656 10.183594 C 27.550781 9.90625 27.574219 9.664062 27.5625 9.375 C 27.460938 9.355469 27.355469 9.332031 27.25 9.3125 C 26.734375 9.871094 26.535156 10.445312 26.550781 11.199219 C 26.582031 11.8125 26.847656 12.234375 27.285156 12.652344 C 27.613281 12.800781 27.953125 12.828125 28.3125 12.8125 C 28.375 12.769531 28.4375 12.730469 28.5 12.6875 C 28.527344 12.441406 28.503906 12.273438 28.375 12.0625 C 28.570312 11.914062 28.703125 11.820312 28.949219 11.785156 C 29.125 11.8125 29.125 11.8125 29.246094 11.878906 C 29.3125 12 29.3125 12 29.320312 12.199219 C 29.207031 12.585938 28.960938 12.832031 28.632812 13.0625 C 28.234375 13.191406 27.761719 13.171875 27.375 13 C 27.082031 12.792969 26.832031 12.542969 26.625 12.25 C 26.589844 12.203125 26.558594 12.15625 26.523438 12.109375 C 26.238281 11.539062 26.242188 10.886719 26.410156 10.28125 C 26.640625 9.597656 27.433594 8.1875 28.25 8.1875 Z M 28.25 8.1875 "/>
<path style=" stroke:none;fill-rule:nonzero;fill:rgb(95.294118%,45.490196%,32.156864%);fill-opacity:1;" d="M 19.75 20.125 C 20.414062 20.417969 20.722656 20.988281 21 21.625 C 21.097656 21.894531 21.1875 22.148438 21.1875 22.4375 C 21.144531 22.4375 21.105469 22.4375 21.0625 22.4375 C 21.023438 22.328125 20.980469 22.222656 20.941406 22.113281 C 20.882812 21.992188 20.882812 21.992188 20.757812 21.917969 C 20.546875 21.75 20.46875 21.507812 20.363281 21.265625 C 20.222656 20.964844 20.078125 20.8125 19.8125 20.625 C 19.515625 20.527344 19.246094 20.507812 18.9375 20.5625 C 18.546875 20.769531 18.308594 21.132812 18.085938 21.503906 C 18.0625 21.539062 18.042969 21.574219 18.019531 21.613281 C 17.863281 21.886719 17.867188 22.074219 17.9375 22.375 C 18.246094 22.410156 18.542969 22.441406 18.851562 22.425781 C 19.214844 22.421875 19.484375 22.566406 19.753906 22.800781 C 19.839844 23.003906 19.792969 23.164062 19.75 23.375 C 19.601562 23.347656 19.511719 23.320312 19.390625 23.226562 C 18.964844 22.917969 18.519531 22.910156 18.015625 22.90625 C 17.648438 22.894531 17.648438 22.894531 17.519531 22.789062 C 17.378906 22.617188 17.394531 22.464844 17.398438 22.25 C 17.566406 21.414062 18.296875 20.695312 18.9375 20.1875 C 19.1875 20.0625 19.476562 20.085938 19.75 20.125 Z M 19.75 20.125 "/>
<path style=" stroke:none;fill-rule:nonzero;fill:rgb(94.509804%,85.882354%,46.27451%);fill-opacity:1;" d="M 30.6875 8.9375 C 30.753906 9.140625 30.75 9.183594 30.671875 9.398438 C 30.445312 9.824219 30.117188 10.191406 29.8125 10.5625 C 29.78125 10.597656 29.753906 10.636719 29.722656 10.675781 C 29.503906 10.941406 29.269531 11.148438 28.992188 11.347656 C 28.929688 11.390625 28.929688 11.390625 28.867188 11.4375 C 27.902344 12.121094 27.902344 12.121094 27.4375 12.0625 C 27.1875 11.804688 27.1875 11.804688 27.1875 11.625 C 27.230469 11.621094 27.269531 11.617188 27.3125 11.613281 C 28.101562 11.507812 28.808594 10.984375 29.332031 10.402344 C 29.457031 10.257812 29.457031 10.257812 29.421875 10.074219 C 29.40625 10.027344 29.390625 9.984375 29.375 9.9375 C 28.953125 9.898438 28.691406 9.929688 28.351562 10.1875 C 28.316406 10.207031 28.285156 10.230469 28.25 10.25 C 28.207031 10.230469 28.167969 10.207031 28.125 10.1875 C 28.136719 10.070312 28.136719 10.070312 28.1875 9.9375 C 28.289062 9.890625 28.394531 9.851562 28.5 9.8125 C 28.824219 9.660156 29.136719 9.496094 29.441406 9.304688 C 29.835938 9.0625 30.21875 8.902344 30.6875 8.9375 Z M 30.6875 8.9375 "/>
<path style=" stroke:none;fill-rule:nonzero;fill:rgb(99.607843%,99.607843%,98.431373%);fill-opacity:1;" d="M 16.6875 25.125 C 16.890625 25.234375 16.96875 25.320312 17.082031 25.515625 C 17.179688 25.910156 17.15625 26.226562 16.957031 26.582031 C 16.808594 26.769531 16.667969 26.820312 16.4375 26.875 C 16.109375 26.882812 15.824219 26.839844 15.5625 26.625 C 15.378906 26.332031 15.40625 26.019531 15.4375 25.6875 C 15.648438 25.132812 16.15625 25.042969 16.6875 25.125 Z M 16.6875 25.125 "/>
<path style=" stroke:none;fill-rule:nonzero;fill:rgb(95.294118%,43.137255%,29.803923%);fill-opacity:1;" d="M 29.4375 1.5 C 29.691406 1.625 29.878906 1.785156 30.035156 2.023438 C 30.074219 2.261719 30.085938 2.460938 30 2.6875 C 29.832031 2.910156 29.644531 3.085938 29.371094 3.160156 C 29.058594 3.179688 28.792969 3.074219 28.5625 2.875 C 28.359375 2.644531 28.230469 2.417969 28.210938 2.109375 C 28.25 1.875 28.25 1.875 28.390625 1.726562 C 28.75 1.515625 29.015625 1.425781 29.4375 1.5 Z M 29.4375 1.5 "/>
<path style=" stroke:none;fill-rule:nonzero;fill:rgb(72.156864%,80.784315%,58.431375%);fill-opacity:1;" d="M 20.324219 21.914062 C 20.523438 22.066406 20.601562 22.25 20.648438 22.496094 C 20.683594 23.042969 20.449219 23.609375 20.109375 24.03125 C 19.691406 24.460938 19.152344 24.679688 18.558594 24.714844 C 18.332031 24.710938 18.203125 24.683594 18.027344 24.539062 C 17.871094 24.371094 17.824219 24.308594 17.785156 24.089844 C 17.824219 23.777344 17.984375 23.550781 18.1875 23.3125 C 18.230469 23.3125 18.269531 23.3125 18.3125 23.3125 C 18.316406 23.351562 18.320312 23.386719 18.320312 23.425781 C 18.328125 23.476562 18.332031 23.527344 18.335938 23.578125 C 18.339844 23.628906 18.34375 23.675781 18.347656 23.726562 C 18.375 23.878906 18.425781 23.992188 18.5 24.125 C 18.96875 24.164062 19.304688 24.09375 19.6875 23.8125 C 20.089844 23.371094 20.207031 22.898438 20.1875 22.3125 C 19.878906 22.25 19.878906 22.25 19.5625 22.1875 C 19.742188 21.832031 19.945312 21.804688 20.324219 21.914062 Z M 20.324219 21.914062 "/>
<path style=" stroke:none;fill-rule:nonzero;fill:rgb(94.509804%,85.490197%,45.490196%);fill-opacity:1;" d="M 15.75 1.125 C 16.015625 1.183594 16.203125 1.269531 16.40625 1.449219 C 16.527344 1.679688 16.558594 1.875 16.5 2.125 C 16.390625 2.328125 16.246094 2.464844 16.050781 2.585938 C 15.703125 2.664062 15.410156 2.714844 15.085938 2.53125 C 14.878906 2.371094 14.71875 2.230469 14.640625 1.976562 C 14.625 1.710938 14.664062 1.59375 14.832031 1.378906 C 15.164062 1.125 15.34375 1.082031 15.75 1.125 Z M 15.75 1.125 "/>
<path style=" stroke:none;fill-rule:nonzero;fill:rgb(99.607843%,99.215686%,98.431373%);fill-opacity:1;" d="M 10.5625 8.5 C 10.746094 8.613281 10.84375 8.683594 10.9375 8.875 C 10.964844 9.160156 10.972656 9.417969 10.859375 9.683594 C 10.703125 9.867188 10.582031 9.984375 10.335938 10.03125 C 10.054688 10.03125 9.867188 10.03125 9.621094 9.886719 C 9.449219 9.601562 9.367188 9.332031 9.375 9 C 9.589844 8.503906 10.082031 8.433594 10.5625 8.5 Z M 10.5625 8.5 "/>
<path style=" stroke:none;fill-rule:nonzero;fill:rgb(99.607843%,99.607843%,98.823529%);fill-opacity:1;" d="M 7.398438 4.292969 C 7.546875 4.410156 7.578125 4.503906 7.625 4.6875 C 7.664062 5.082031 7.605469 5.359375 7.375 5.6875 C 7.148438 5.894531 6.925781 5.90625 6.628906 5.898438 C 6.5 5.875 6.5 5.875 6.34375 5.761719 C 6.167969 5.503906 6.148438 5.242188 6.1875 4.9375 C 6.269531 4.683594 6.375 4.492188 6.578125 4.3125 C 6.855469 4.210938 7.113281 4.210938 7.398438 4.292969 Z M 7.398438 4.292969 "/>
<path style=" stroke:none;fill-rule:nonzero;fill:rgb(100%,99.607843%,99.607843%);fill-opacity:1;" d="M 21.6875 12.6875 C 21.769531 13.023438 21.746094 13.210938 21.578125 13.511719 C 21.382812 13.792969 21.140625 13.929688 20.8125 14 C 20.414062 14 20.136719 13.917969 19.828125 13.65625 C 19.648438 13.441406 19.667969 13.203125 19.6875 12.9375 C 19.875 12.8125 19.875 12.8125 20.054688 12.8125 C 20.324219 12.898438 20.398438 13.023438 20.5625 13.25 C 20.816406 13.164062 20.914062 13 21.054688 12.785156 C 21.226562 12.550781 21.429688 12.644531 21.6875 12.6875 Z M 21.6875 12.6875 "/>
<path style=" stroke:none;fill-rule:nonzero;fill:rgb(99.607843%,98.431373%,98.039216%);fill-opacity:1;" d="M 11.398438 18.226562 C 11.664062 18.265625 11.800781 18.363281 11.984375 18.546875 C 12.09375 18.746094 12.117188 18.898438 12.125 19.125 C 12.042969 19.390625 11.976562 19.476562 11.738281 19.621094 C 11.441406 19.703125 11.296875 19.695312 11 19.625 C 10.8125 19.511719 10.714844 19.417969 10.601562 19.234375 C 10.53125 18.917969 10.578125 18.667969 10.710938 18.375 C 10.9375 18.203125 11.117188 18.214844 11.398438 18.226562 Z M 11.398438 18.226562 "/>
<path style=" stroke:none;fill-rule:nonzero;fill:rgb(100%,99.607843%,99.607843%);fill-opacity:1;" d="M 22.25 11.6875 C 22.46875 11.664062 22.46875 11.664062 22.6875 11.6875 C 22.875 11.96875 22.824219 12.230469 22.8125 12.5625 C 22.8125 12.605469 22.808594 12.648438 22.808594 12.691406 C 22.800781 12.832031 22.796875 12.96875 22.789062 13.109375 C 22.789062 13.152344 22.785156 13.199219 22.785156 13.242188 C 22.765625 13.535156 22.714844 13.785156 22.625 14.0625 C 22.273438 14.132812 22.273438 14.132812 22.0625 14.0625 C 21.980469 13.601562 22.015625 13.164062 22.050781 12.699219 C 22.054688 12.621094 22.0625 12.546875 22.066406 12.46875 C 22.070312 12.394531 22.078125 12.320312 22.082031 12.246094 C 22.089844 12.179688 22.09375 12.113281 22.097656 12.042969 C 22.125 11.875 22.125 11.875 22.25 11.6875 Z M 22.25 11.6875 "/>
<path style=" stroke:none;fill-rule:nonzero;fill:rgb(71.764708%,80.784315%,58.431375%);fill-opacity:1;" d="M 22.371094 0.75 C 22.65625 0.9375 22.90625 1.191406 23.0625 1.5 C 23.070312 1.667969 23.066406 1.832031 23.0625 2 C 22.75 1.960938 22.597656 1.730469 22.394531 1.507812 C 22.089844 1.226562 21.773438 1.21875 21.375 1.226562 C 21.132812 1.257812 20.984375 1.34375 20.796875 1.492188 C 20.6875 1.5625 20.6875 1.5625 20.4375 1.5625 C 20.449219 1.300781 20.480469 1.207031 20.667969 1.019531 C 21.148438 0.640625 21.785156 0.546875 22.371094 0.75 Z M 22.371094 0.75 "/>
<path style=" stroke:none;fill-rule:nonzero;fill:rgb(99.607843%,99.607843%,98.823529%);fill-opacity:1;" d="M 31.3125 3.125 C 31.484375 3.261719 31.5 3.371094 31.554688 3.582031 C 31.5625 3.855469 31.511719 4.011719 31.375 4.25 C 31.117188 4.414062 30.859375 4.425781 30.5625 4.375 C 30.367188 4.257812 30.367188 4.257812 30.25 4.0625 C 30.222656 3.753906 30.265625 3.511719 30.429688 3.246094 C 30.695312 3.003906 30.984375 3.046875 31.3125 3.125 Z M 31.3125 3.125 "/>
<path style=" stroke:none;fill-rule:nonzero;fill:rgb(96.470588%,97.254902%,94.901961%);fill-opacity:1;" d="M 5.1875 24.625 C 5.34375 24.714844 5.34375 24.714844 5.4375 24.875 C 5.492188 25.191406 5.488281 25.421875 5.3125 25.691406 C 5.078125 25.839844 4.898438 25.886719 4.625 25.875 C 4.4375 25.828125 4.347656 25.804688 4.242188 25.640625 C 4.175781 25.464844 4.179688 25.339844 4.195312 25.152344 C 4.199219 25.09375 4.203125 25.035156 4.207031 24.972656 C 4.25 24.8125 4.25 24.8125 4.367188 24.703125 C 4.644531 24.542969 4.882812 24.550781 5.1875 24.625 Z M 5.1875 24.625 "/>
<path style=" stroke:none;fill-rule:nonzero;fill:rgb(99.607843%,98.823529%,98.431373%);fill-opacity:1;" d="M 13.183594 1.171875 C 13.265625 1.167969 13.265625 1.167969 13.34375 1.167969 C 13.535156 1.191406 13.617188 1.242188 13.75 1.375 C 13.820312 1.660156 13.835938 1.804688 13.742188 2.082031 C 13.609375 2.273438 13.527344 2.351562 13.3125 2.4375 C 13.050781 2.460938 12.847656 2.464844 12.625 2.3125 C 12.542969 2.152344 12.550781 2.03125 12.550781 1.851562 C 12.550781 1.792969 12.550781 1.730469 12.546875 1.671875 C 12.5625 1.496094 12.589844 1.394531 12.6875 1.25 C 12.867188 1.191406 12.996094 1.175781 13.183594 1.171875 Z M 13.183594 1.171875 "/>
<path style=" stroke:none;fill-rule:nonzero;fill:rgb(100%,99.607843%,99.607843%);fill-opacity:1;" d="M 19.0625 12.5625 C 19.195312 12.9375 19.203125 13.28125 19.199219 13.675781 C 19.199219 13.734375 19.199219 13.796875 19.199219 13.855469 C 19.195312 14.292969 19.195312 14.292969 19.125 14.4375 C 18.902344 14.492188 18.78125 14.511719 18.5625 14.4375 C 18.472656 14.261719 18.492188 14.113281 18.492188 13.917969 C 18.492188 13.839844 18.496094 13.761719 18.496094 13.679688 C 18.496094 13.597656 18.496094 13.515625 18.496094 13.429688 C 18.496094 13.347656 18.496094 13.261719 18.496094 13.179688 C 18.496094 12.972656 18.5 12.769531 18.5 12.5625 C 18.71875 12.488281 18.839844 12.519531 19.0625 12.5625 Z M 19.0625 12.5625 "/>
<path style=" stroke:none;fill-rule:nonzero;fill:rgb(99.607843%,96.862745%,96.078432%);fill-opacity:1;" d="M 27.375 1.25 C 27.523438 1.339844 27.523438 1.339844 27.625 1.5 C 27.675781 1.777344 27.65625 1.996094 27.539062 2.253906 C 27.320312 2.414062 27.160156 2.40625 26.894531 2.40625 C 26.722656 2.371094 26.667969 2.328125 26.5625 2.1875 C 26.484375 1.914062 26.5 1.753906 26.625 1.5 C 26.667969 1.5 26.707031 1.5 26.75 1.5 C 26.769531 1.4375 26.792969 1.375 26.8125 1.3125 C 27.019531 1.242188 27.15625 1.226562 27.375 1.25 Z M 27.375 1.25 "/>
<path style=" stroke:none;fill-rule:nonzero;fill:rgb(99.607843%,99.215686%,97.647059%);fill-opacity:1;" d="M 23.6875 2.5625 C 23.871094 2.691406 23.871094 2.691406 24 2.875 C 24.023438 3.113281 24.011719 3.273438 23.9375 3.5 C 23.722656 3.65625 23.507812 3.644531 23.25 3.625 C 23.101562 3.574219 23.101562 3.574219 23 3.5 C 22.914062 3.238281 22.898438 2.992188 22.988281 2.726562 C 23.152344 2.5 23.4375 2.535156 23.6875 2.5625 Z M 23.6875 2.5625 "/>
<path style=" stroke:none;fill-rule:nonzero;fill:rgb(95.294118%,45.09804%,31.764707%);fill-opacity:1;" d="M 5.875 6.25 C 5.9375 6.269531 6 6.292969 6.0625 6.3125 C 6.039062 6.660156 5.992188 6.984375 5.902344 7.320312 C 5.738281 7.996094 5.757812 8.703125 5.9375 9.375 C 5.894531 9.375 5.855469 9.375 5.8125 9.375 C 5.40625 8.453125 5.300781 7.578125 5.613281 6.601562 C 5.683594 6.445312 5.742188 6.359375 5.875 6.25 Z M 5.875 6.25 "/>
<path style=" stroke:none;fill-rule:nonzero;fill:rgb(55.686277%,72.941178%,69.01961%);fill-opacity:1;" d="M 13.9375 4.875 C 13.902344 5.054688 13.882812 5.117188 13.75 5.25 C 13.417969 5.269531 13.417969 5.269531 13.25 5.1875 C 13.089844 5.179688 12.929688 5.171875 12.769531 5.171875 C 12.703125 5.171875 12.703125 5.171875 12.636719 5.167969 C 12.238281 5.164062 11.957031 5.261719 11.636719 5.511719 C 11.460938 5.738281 11.425781 5.910156 11.375 6.1875 C 11.292969 6.1875 11.210938 6.1875 11.125 6.1875 C 11.125 5.824219 11.308594 5.632812 11.546875 5.382812 C 12.160156 4.804688 13.140625 4.503906 13.9375 4.875 Z M 13.9375 4.875 "/>
<path style=" stroke:none;fill-rule:nonzero;fill:rgb(95.294118%,45.490196%,32.156864%);fill-opacity:1;" d="M 30.5 11.4375 C 30.777344 11.523438 30.945312 11.648438 31.125 11.875 C 31.183594 12.164062 31.089844 12.378906 30.953125 12.632812 C 30.796875 12.867188 30.613281 13.035156 30.332031 13.101562 C 30.285156 13.109375 30.238281 13.117188 30.1875 13.125 C 30.214844 13.085938 30.242188 13.042969 30.269531 13 C 30.566406 12.515625 30.65625 12.101562 30.53125 11.539062 C 30.519531 11.507812 30.511719 11.472656 30.5 11.4375 Z M 30.5 11.4375 "/>
<path style=" stroke:none;fill-rule:nonzero;fill:rgb(95.294118%,44.705883%,31.764707%);fill-opacity:1;" d="M 21.125 22.625 C 21.167969 22.625 21.207031 22.625 21.25 22.625 C 21.289062 23.863281 21.289062 23.863281 20.9375 24.25 C 20.558594 24.34375 20.558594 24.34375 20.375 24.25 C 20.480469 23.949219 20.644531 23.722656 20.835938 23.46875 C 21.011719 23.199219 21.082031 22.945312 21.125 22.625 Z M 21.125 22.625 "/>
<path style=" stroke:none;fill-rule:nonzero;fill:rgb(94.509804%,85.882354%,46.666667%);fill-opacity:1;" d="M 16.5 25.5625 C 16.617188 25.632812 16.617188 25.632812 16.6875 25.75 C 16.722656 25.976562 16.714844 26.082031 16.585938 26.273438 C 16.394531 26.402344 16.289062 26.410156 16.0625 26.375 C 15.941406 26.308594 15.941406 26.308594 15.875 26.1875 C 15.882812 25.972656 15.898438 25.8125 16.011719 25.628906 C 16.183594 25.527344 16.308594 25.539062 16.5 25.5625 Z M 16.5 25.5625 "/>
<path style=" stroke:none;fill-rule:nonzero;fill:rgb(59.215689%,74.901962%,71.372551%);fill-opacity:1;" d="M 27.5 10.0625 C 27.5625 10.0625 27.625 10.0625 27.6875 10.0625 C 27.789062 10.261719 27.757812 10.476562 27.753906 10.695312 C 27.753906 10.742188 27.753906 10.789062 27.753906 10.839844 C 27.753906 10.953125 27.75 11.070312 27.75 11.1875 C 27.605469 11.207031 27.460938 11.230469 27.3125 11.25 C 27.285156 10.832031 27.390625 10.464844 27.5 10.0625 Z M 27.5 10.0625 "/>
<path style=" stroke:none;fill-rule:nonzero;fill:rgb(73.333335%,81.568629%,60.392159%);fill-opacity:1;" d="M 7.046875 4.703125 C 7.09375 4.71875 7.140625 4.734375 7.1875 4.75 C 7.15625 5.144531 7.15625 5.144531 7.007812 5.339844 C 6.875 5.4375 6.875 5.4375 6.6875 5.4375 C 6.597656 5.261719 6.605469 5.132812 6.625 4.9375 C 6.757812 4.746094 6.808594 4.679688 7.046875 4.703125 Z M 7.046875 4.703125 "/>
<path style=" stroke:none;fill-rule:nonzero;fill:rgb(94.509804%,85.882354%,47.058824%);fill-opacity:1;" d="M 10.183594 8.925781 C 10.375 8.9375 10.375 8.9375 10.5 9.0625 C 10.523438 9.242188 10.523438 9.335938 10.425781 9.488281 C 10.277344 9.585938 10.175781 9.582031 10 9.5625 C 9.9375 9.5 9.9375 9.5 9.929688 9.386719 C 9.929688 9.339844 9.929688 9.296875 9.929688 9.25 C 9.929688 9.203125 9.929688 9.160156 9.929688 9.113281 C 9.945312 8.921875 9.988281 8.9375 10.183594 8.925781 Z M 10.183594 8.925781 "/>
<path style=" stroke:none;fill-rule:nonzero;fill:rgb(63.529414%,77.64706%,74.509805%);fill-opacity:1;" d="M 12.875 5.0625 C 12.875 5.082031 12.875 5.105469 12.875 5.125 C 12.816406 5.128906 12.757812 5.136719 12.699219 5.140625 C 12.234375 5.195312 11.90625 5.234375 11.5625 5.5625 C 11.425781 5.753906 11.40625 5.957031 11.375 6.1875 C 11.292969 6.1875 11.210938 6.1875 11.125 6.1875 C 11.125 5.824219 11.308594 5.632812 11.546875 5.382812 C 12 4.953125 12.265625 4.886719 12.875 5.0625 Z M 12.875 5.0625 "/>
<path style=" stroke:none;fill-rule:nonzero;fill:rgb(63.529414%,77.64706%,74.901962%);fill-opacity:1;" d="M 26.8125 9.4375 C 26.855469 9.457031 26.894531 9.480469 26.9375 9.5 C 26.910156 9.707031 26.851562 9.867188 26.757812 10.050781 C 26.53125 10.492188 26.410156 10.878906 26.375 11.375 C 26.355469 11.375 26.332031 11.375 26.3125 11.375 C 26.261719 10.671875 26.425781 10.03125 26.8125 9.4375 Z M 26.8125 9.4375 "/>
<path style=" stroke:none;fill-rule:nonzero;fill:rgb(95.294118%,43.529412%,30.19608%);fill-opacity:1;" d="M 11.1875 18.6875 C 11.542969 18.730469 11.542969 18.730469 11.625 18.8125 C 11.632812 18.96875 11.632812 18.96875 11.625 19.125 C 11.5625 19.1875 11.5625 19.1875 11.378906 19.199219 C 11.1875 19.1875 11.1875 19.1875 11.0625 19.0625 C 11.097656 18.777344 11.097656 18.777344 11.1875 18.6875 Z M 11.1875 18.6875 "/>
<path style=" stroke:none;fill-rule:nonzero;fill:rgb(99.215686%,90.588236%,87.843138%);fill-opacity:1;" d="M 9.75 4.75 C 9.792969 4.769531 9.832031 4.792969 9.875 4.8125 C 9.441406 5.246094 9.007812 5.679688 8.5625 6.125 C 8.519531 6.105469 8.480469 6.082031 8.4375 6.0625 C 8.855469 5.597656 9.269531 5.152344 9.75 4.75 Z M 9.75 4.75 "/>
<path style=" stroke:none;fill-rule:nonzero;fill:rgb(94.509804%,85.882354%,47.450981%);fill-opacity:1;" d="M 29.8125 7.625 C 29.832031 7.761719 29.832031 7.761719 29.8125 7.9375 C 29.667969 8.113281 29.667969 8.113281 29.5 8.25 C 29.4375 8.25 29.375 8.25 29.3125 8.25 C 29.332031 8.027344 29.351562 7.902344 29.492188 7.726562 C 29.625 7.625 29.625 7.625 29.8125 7.625 Z M 29.8125 7.625 "/>
<path style=" stroke:none;fill-rule:nonzero;fill:rgb(95.686275%,88.627452%,56.862748%);fill-opacity:1;" d="M 29.25 9.8125 C 29.25 9.832031 29.25 9.855469 29.25 9.875 C 29.1875 9.882812 29.1875 9.882812 29.125 9.894531 C 28.773438 9.953125 28.53125 10.027344 28.25 10.25 C 28.207031 10.230469 28.167969 10.207031 28.125 10.1875 C 28.136719 10.070312 28.136719 10.070312 28.1875 9.9375 C 28.328125 9.867188 28.328125 9.867188 28.5 9.8125 C 28.550781 9.785156 28.597656 9.761719 28.648438 9.734375 C 28.878906 9.667969 29.03125 9.734375 29.25 9.8125 Z M 29.25 9.8125 "/>
<path style=" stroke:none;fill-rule:nonzero;fill:rgb(60.000002%,75.686276%,72.156864%);fill-opacity:1;" d="M 11.5 5.4375 C 11.542969 5.457031 11.582031 5.480469 11.625 5.5 C 11.582031 5.566406 11.582031 5.566406 11.535156 5.632812 C 11.433594 5.824219 11.398438 5.972656 11.375 6.1875 C 11.292969 6.1875 11.210938 6.1875 11.125 6.1875 C 11.148438 5.835938 11.269531 5.6875 11.5 5.4375 Z M 11.5 5.4375 "/>
<path style=" stroke:none;fill-rule:nonzero;fill:rgb(74.509805%,82.745099%,62.352943%);fill-opacity:1;" d="M 5 25.0625 C 4.980469 25.164062 4.957031 25.269531 4.9375 25.375 C 4.816406 25.410156 4.816406 25.410156 4.6875 25.4375 C 4.625 25.375 4.625 25.375 4.621094 25.214844 C 4.621094 25.164062 4.625 25.113281 4.625 25.0625 C 4.78125 24.984375 4.839844 25.015625 5 25.0625 Z M 5 25.0625 "/>
<path style=" stroke:none;fill-rule:nonzero;fill:rgb(94.901961%,86.666667%,50.588238%);fill-opacity:1;" d="M 30.8125 3.5 C 30.894531 3.519531 30.976562 3.542969 31.0625 3.5625 C 31.0625 3.664062 31.0625 3.769531 31.0625 3.875 C 30.960938 3.894531 30.855469 3.917969 30.75 3.9375 C 30.710938 3.824219 30.710938 3.824219 30.6875 3.6875 C 30.730469 3.625 30.769531 3.5625 30.8125 3.5 Z M 30.8125 3.5 "/>
<path style=" stroke:none;fill-rule:nonzero;fill:rgb(96.078432%,54.509807%,43.529412%);fill-opacity:1;" d="M 5.5625 8.625 C 5.683594 8.667969 5.683594 8.667969 5.8125 8.75 C 5.863281 8.898438 5.863281 8.898438 5.890625 9.070312 C 5.898438 9.128906 5.910156 9.183594 5.917969 9.242188 C 5.925781 9.285156 5.929688 9.328125 5.9375 9.375 C 5.894531 9.375 5.855469 9.375 5.8125 9.375 C 5.769531 9.273438 5.730469 9.171875 5.6875 9.070312 C 5.664062 9.015625 5.640625 8.957031 5.617188 8.898438 C 5.5625 8.75 5.5625 8.75 5.5625 8.625 Z M 5.5625 8.625 "/>
<path style=" stroke:none;fill-rule:nonzero;fill:rgb(99.215686%,92.54902%,90.980393%);fill-opacity:1;" d="M 18.75 20.625 C 18.792969 20.625 18.832031 20.625 18.875 20.625 C 18.785156 20.824219 18.679688 20.957031 18.523438 21.109375 C 18.464844 21.167969 18.464844 21.167969 18.402344 21.226562 C 18.375 21.253906 18.34375 21.28125 18.3125 21.3125 C 18.269531 21.292969 18.230469 21.269531 18.1875 21.25 C 18.277344 21.144531 18.371094 21.042969 18.460938 20.9375 C 18.511719 20.878906 18.5625 20.820312 18.613281 20.761719 C 18.660156 20.714844 18.703125 20.671875 18.75 20.625 Z M 18.75 20.625 "/>
<path style=" stroke:none;fill-rule:nonzero;fill:rgb(95.686275%,47.843137%,35.294119%);fill-opacity:1;" d="M 13 1.625 C 13.101562 1.625 13.207031 1.625 13.3125 1.625 C 13.3125 1.707031 13.3125 1.789062 13.3125 1.875 C 13.269531 1.917969 13.230469 1.957031 13.1875 2 C 13.125 2 13.0625 2 13 2 C 13 1.875 13 1.753906 13 1.625 Z M 13 1.625 "/>
<path style=" stroke:none;fill-rule:nonzero;fill:rgb(99.215686%,89.803922%,87.450981%);fill-opacity:1;" d="M 27 18.5 C 27.042969 18.519531 27.082031 18.542969 27.125 18.5625 C 26.917969 18.769531 26.710938 18.976562 26.5 19.1875 C 26.457031 19.167969 26.417969 19.144531 26.375 19.125 C 26.445312 19.042969 26.511719 18.964844 26.582031 18.882812 C 26.621094 18.835938 26.660156 18.792969 26.699219 18.746094 C 26.8125 18.625 26.8125 18.625 27 18.5 Z M 27 18.5 "/>
<path style=" stroke:none;fill-rule:nonzero;fill:rgb(95.686275%,50.196081%,38.039216%);fill-opacity:1;" d="M 26.625 18.1875 C 26.667969 18.207031 26.707031 18.230469 26.75 18.25 C 26.523438 18.476562 26.296875 18.703125 26.0625 18.9375 C 26.0625 18.6875 26.148438 18.621094 26.3125 18.4375 C 26.414062 18.351562 26.519531 18.265625 26.625 18.1875 Z M 26.625 18.1875 "/>
<path style=" stroke:none;fill-rule:nonzero;fill:rgb(64.705884%,78.431374%,75.294119%);fill-opacity:1;" d="M 9.75 15.6875 C 9.792969 15.75 9.832031 15.8125 9.875 15.875 C 9.847656 16.003906 9.847656 16.003906 9.789062 16.136719 C 9.769531 16.179688 9.753906 16.226562 9.734375 16.273438 C 9.71875 16.304688 9.703125 16.339844 9.6875 16.375 C 9.605469 16.355469 9.523438 16.332031 9.4375 16.3125 C 9.539062 16.105469 9.644531 15.898438 9.75 15.6875 Z M 9.75 15.6875 "/>
<path style=" stroke:none;fill-rule:nonzero;fill:rgb(60.000002%,75.686276%,72.156864%);fill-opacity:1;" d="M 26.8125 9.4375 C 26.855469 9.457031 26.894531 9.480469 26.9375 9.5 C 26.914062 9.675781 26.894531 9.785156 26.785156 9.925781 C 26.6875 10 26.6875 10 26.5625 10 C 26.636719 9.808594 26.71875 9.621094 26.8125 9.4375 Z M 26.8125 9.4375 "/>
<path style=" stroke:none;fill-rule:nonzero;fill:rgb(81.568629%,88.627452%,87.058824%);fill-opacity:1;" d="M 9.5625 16.5 C 9.578125 16.539062 9.597656 16.578125 9.613281 16.621094 C 9.679688 16.769531 9.679688 16.769531 9.875 16.8125 C 9.875 16.875 9.875 16.9375 9.875 17 C 9.957031 17.019531 10.039062 17.042969 10.125 17.0625 C 10.023438 17.0625 9.917969 17.0625 9.8125 17.0625 C 9.792969 17.019531 9.769531 16.980469 9.75 16.9375 C 9.625 16.867188 9.625 16.867188 9.5 16.8125 C 9.519531 16.710938 9.542969 16.605469 9.5625 16.5 Z M 9.5625 16.5 "/>
<path style=" stroke:none;fill-rule:nonzero;fill:rgb(96.078432%,51.372552%,39.607844%);fill-opacity:1;" d="M 25.125 3.4375 C 25.167969 3.457031 25.207031 3.480469 25.25 3.5 C 25.207031 3.542969 25.167969 3.582031 25.125 3.625 C 25.1875 3.667969 25.25 3.707031 25.3125 3.75 C 25.167969 3.792969 25.023438 3.832031 24.875 3.875 C 24.832031 3.832031 24.792969 3.792969 24.75 3.75 C 24.875 3.648438 24.996094 3.542969 25.125 3.4375 Z M 25.125 3.4375 "/>
<path style=" stroke:none;fill-rule:nonzero;fill:rgb(91.37255%,94.509804%,93.725491%);fill-opacity:1;" d="M 11.875 5.25 C 11.917969 5.269531 11.957031 5.292969 12 5.3125 C 11.835938 5.476562 11.671875 5.640625 11.5 5.8125 C 11.480469 5.769531 11.457031 5.730469 11.4375 5.6875 C 11.582031 5.542969 11.730469 5.394531 11.875 5.25 Z M 11.875 5.25 "/>
</g>
</svg>
